<?xml version="1.0" encoding="UTF-8"?>
<!DOCTYPE svg PUBLIC "-//W3C//DTD SVG 1.1//EN" "http://www.w3.org/Graphics/SVG/1.1/DTD/svg11.dtd">
<!-- Creator: CorelDRAW 2020 (64-Bit) -->
<svg xmlns="http://www.w3.org/2000/svg" xml:space="preserve" width="105.39mm" height="86.5229mm" version="1.1" style="shape-rendering:geometricPrecision; text-rendering:geometricPrecision; image-rendering:optimizeQuality; fill-rule:evenodd; clip-rule:evenodd"
viewBox="0 0 8560.89 7028.3"
 xmlns:xlink="http://www.w3.org/1999/xlink"
 xmlns:xodm="http://www.corel.com/coreldraw/odm/2003">
 <defs>
  <style type="text/css">
   <![CDATA[
    .fil39 {fill:#111114;fill-rule:nonzero}
    .fil44 {fill:#221101;fill-rule:nonzero}
    .fil26 {fill:#29BADF;fill-rule:nonzero}
    .fil22 {fill:#3190A4;fill-rule:nonzero}
    .fil45 {fill:#341C09;fill-rule:nonzero}
    .fil21 {fill:#36A0B7;fill-rule:nonzero}
    .fil23 {fill:#3FBAD4;fill-rule:nonzero}
    .fil3 {fill:#4D9B12;fill-rule:nonzero}
    .fil40 {fill:#511DD8;fill-rule:nonzero}
    .fil16 {fill:#58361A;fill-rule:nonzero}
    .fil41 {fill:#632BEE;fill-rule:nonzero}
    .fil12 {fill:#72B5D3;fill-rule:nonzero}
    .fil2 {fill:#73C139;fill-rule:nonzero}
    .fil8 {fill:#95C4DE;fill-rule:nonzero}
    .fil32 {fill:#96C4FF;fill-rule:nonzero}
    .fil11 {fill:#A9D6EA;fill-rule:nonzero}
    .fil19 {fill:#ABBEC5;fill-rule:nonzero}
    .fil38 {fill:#AFCED8;fill-rule:nonzero}
    .fil33 {fill:#B4E3ED;fill-rule:nonzero}
    .fil31 {fill:#B8B8B8;fill-rule:nonzero}
    .fil20 {fill:#BFD4DC;fill-rule:nonzero}
    .fil30 {fill:#CACACA;fill-rule:nonzero}
    .fil36 {fill:#CADFE8;fill-rule:nonzero}
    .fil42 {fill:#DD9569;fill-rule:nonzero}
    .fil46 {fill:#DEF0F9;fill-rule:nonzero}
    .fil9 {fill:#DEF6FF;fill-rule:nonzero}
    .fil47 {fill:#E1BB00;fill-rule:nonzero}
    .fil0 {fill:#E53399;fill-rule:nonzero}
    .fil43 {fill:#E6A376;fill-rule:nonzero}
    .fil49 {fill:#EA49BD;fill-rule:nonzero}
    .fil15 {fill:#ED8001;fill-rule:nonzero}
    .fil34 {fill:#EEFAFE;fill-rule:nonzero}
    .fil37 {fill:#EFB185;fill-rule:nonzero}
    .fil17 {fill:#F79534;fill-rule:nonzero}
    .fil24 {fill:#F8F9FD;fill-rule:nonzero}
    .fil18 {fill:#FACD00;fill-rule:nonzero}
    .fil50 {fill:#FF61CB;fill-rule:nonzero}
    .fil1 {fill:#FF76C4;fill-rule:nonzero}
    .fil48 {fill:#FFDF02;fill-rule:nonzero}
    .fil5 {fill:#FFE85F;fill-rule:nonzero}
    .fil14 {fill:#FFFFFE;fill-rule:nonzero}
    .fil35 {fill:white;fill-rule:nonzero}
    .fil13 {fill:url(#id0)}
    .fil27 {fill:url(#id1)}
    .fil7 {fill:url(#id2)}
    .fil4 {fill:url(#id3)}
    .fil6 {fill:url(#id4)}
    .fil25 {fill:url(#id5)}
    .fil29 {fill:url(#id6)}
    .fil28 {fill:url(#id7)}
    .fil10 {fill:url(#id8)}
   ]]>
  </style>
  <linearGradient id="id0" gradientUnits="userSpaceOnUse" x1="5587.36" y1="5609.93" x2="5587.36" y2="7264.55">
   <stop offset="0" style="stop-opacity:1; stop-color:#FFDF02"/>
   <stop offset="0.290196" style="stop-opacity:1; stop-color:#F0C501"/>
   <stop offset="1" style="stop-opacity:1; stop-color:#E1AA00"/>
  </linearGradient>
  <linearGradient id="id1" gradientUnits="userSpaceOnUse" x1="6814.43" y1="4783.27" x2="7849.15" y2="4783.27">
   <stop offset="0" style="stop-opacity:1; stop-color:#6474D6"/>
   <stop offset="1" style="stop-opacity:1; stop-color:#1B4B92"/>
  </linearGradient>
  <linearGradient id="id2" gradientUnits="userSpaceOnUse" x1="767.34" y1="2571.76" x2="767.34" y2="3971.48">
   <stop offset="0" style="stop-opacity:1; stop-color:#FF4CAA"/>
   <stop offset="1" style="stop-opacity:1; stop-color:#E53399"/>
  </linearGradient>
  <linearGradient id="id3" gradientUnits="userSpaceOnUse" xlink:href="#id0" x1="1059.59" y1="2462.96" x2="693.31" y2="2462.96">
  </linearGradient>
  <linearGradient id="id4" gradientUnits="userSpaceOnUse" xlink:href="#id0" x1="772.64" y1="2341.1" x2="409.04" y2="2290.76">
  </linearGradient>
  <linearGradient id="id5" gradientUnits="userSpaceOnUse" x1="7355.38" y1="4946.95" x2="7383.53" y2="6840.26">
   <stop offset="0" style="stop-opacity:1; stop-color:#43D9E5"/>
   <stop offset="0.709804" style="stop-opacity:1; stop-color:#2DBFE0"/>
   <stop offset="1" style="stop-opacity:1; stop-color:#17A4DB"/>
  </linearGradient>
  <linearGradient id="id6" gradientUnits="userSpaceOnUse" xlink:href="#id1" x1="7281.91" y1="3433.11" x2="8464.65" y2="3433.11">
  </linearGradient>
  <linearGradient id="id7" gradientUnits="userSpaceOnUse" x1="6803.76" y1="937.86" x2="7048.88" y2="5604.64">
   <stop offset="0" style="stop-opacity:1; stop-color:#1B4B92"/>
   <stop offset="1" style="stop-opacity:1; stop-color:#6474D6"/>
  </linearGradient>
  <linearGradient id="id8" gradientUnits="userSpaceOnUse" x1="2909.1" y1="1499.44" x2="5325.14" y2="5236.26">
   <stop offset="0" style="stop-opacity:1; stop-color:#90D9F9"/>
   <stop offset="1" style="stop-opacity:1; stop-color:#29B7E0"/>
  </linearGradient>
 </defs>
 <g id="Layer_x0020_1">
  <metadata id="CorelCorpID_0Corel-Layer"/>
  <g id="_1910731763888">
   <g>
    <image x="205.91" y="3075.99" width="1492.86" height="872.59" xlink:href="no-chat_Images\no-chat_ImgID1.png"/>
   </g>
   <path class="fil0" d="M369.27 2136.01c-220.52,127.38 -221.55,333.67 -2.64,461.02 219.25,127.13 575.22,127.13 795.76,0 220.62,-127.49 221.82,-333.64 2.63,-461.02 -218.82,-127.24 -575.13,-127.35 -795.75,0z"/>
   <path class="fil1" d="M441.1 2177.36c180.93,-104.4 473.26,-104.31 652.74,0 179.73,104.54 178.85,273.81 -2.04,378.12 -180.93,104.59 -473.09,104.59 -652.93,0 -179.5,-104.23 -178.59,-273.58 2.23,-378.12zm-74.48 419.67c219.25,127.15 575.25,127.15 795.76,0 220.63,-127.49 221.83,-333.65 2.64,-461.02 -218.82,-127.23 -575.14,-127.35 -795.76,0 -220.51,127.38 -221.54,333.68 -2.64,461.02z"/>
   <path class="fil2" d="M1093.27 1541.89c0.23,0.29 0.23,0.6 0.23,1.03 0.35,1.95 1.15,3.9 2.06,5.79 0.12,0.4 0.35,0.92 0.58,1.23 1.03,1.83 2.46,4 4.07,5.87 1.09,1.35 2.58,2.61 3.87,3.75 1.2,1.23 2.12,2.18 3.44,3.09 5.1,3.92 11.17,7.22 17.56,9.8 0.92,0.35 1.84,0.75 2.92,1.15 6.56,2.3 13.38,4.1 20.46,5.16l0.89 0c7.54,1.06 15.13,1.29 22.47,0.67 0.28,-0.11 0.51,-0.11 0.86,-0.2 7.3,-0.75 14.35,-2.18 20.71,-4.9 12.79,-5.36 20.06,-13.52 21.21,-22.75l-216.07 1642.38c-1.11,9.08 -8.45,17.37 -21.2,22.64 -3.04,1.26 -6.13,2.29 -9.34,2.98 -2.49,0.66 -5.08,1.12 -7.88,1.58 -1.15,0.11 -2.38,0.32 -3.64,0.32 -0.26,0.11 -0.49,0.11 -0.95,0.11 -0.57,0.09 -1.2,0.28 -1.95,0.28 -1.97,0.11 -3.98,0.2 -6.04,0.2l0.11 -0.6 -0.11 0.6c-1.95,0 -4.01,0 -5.93,-0.09 -2.15,-0.11 -4.1,-0.31 -6.19,-0.51 -0.69,-0.09 -1.38,-0.2 -2.18,-0.32l-0.8 0c-1.15,-0.23 -2.12,-0.45 -3.21,-0.51 -2.18,-0.41 -4.44,-0.86 -6.65,-1.44 -2.49,-0.66 -5.01,-1.15 -7.65,-2.12 -0.92,-0.26 -1.95,-0.8 -2.98,-1.29 -1.09,-0.23 -2.09,-0.74 -2.92,-1.03 -1.69,-0.63 -3.58,-1.37 -5.19,-2.09 -4.58,-2.06 -8.65,-4.87 -12.46,-7.65 -0.12,-0.2 -0.46,-0.28 -0.69,-0.49 -1.03,-0.83 -1.72,-1.72 -2.53,-2.61 -1.49,-1.23 -2.97,-2.49 -4,-3.73 -0.12,-0.19 -0.35,-0.19 -0.41,-0.28 -1.09,-1.58 -2.35,-3.15 -3.27,-4.67 -0.23,-0.17 -0.28,-0.75 -0.43,-1.15 -0.17,-0.32 -0.43,-0.52 -0.51,-1.03 -0.32,-0.6 -0.63,-1.15 -1.01,-1.84 -0.37,-1.15 -0.89,-2.29 -1.11,-3.55l0 -0.52c-0.15,-0.37 -0.15,-0.63 -0.24,-0.92 -0.06,-0.71 -0.17,-1.43 -0.28,-2.18 0,-1.15 0,-2.38 0.11,-3.49l0 -0.52 216.15 -1642.35c-0.34,2.04 -0.23,3.99 0.11,6.19z"/>
   <path class="fil3" d="M1114.55 1513.04c-25.68,10.63 -28.83,32.75 -7.04,49.61 21.69,17.05 60.23,22.23 85.88,11.69 25.62,-10.54 28.72,-32.67 6.85,-49.72 -21.72,-16.85 -60.18,-22.27 -85.68,-11.58z"/>
   <path class="fil2" d="M740.56 1465.51c0.11,0.28 0.11,0.6 0.11,1.03 0.52,1.83 1.15,3.78 2.06,5.84 0.2,0.35 0.52,0.75 0.69,1.15 1.03,1.95 2.4,3.93 3.98,5.91 1.2,1.23 2.64,2.61 3.96,3.75 1.09,1.01 2.12,2.12 3.49,3.09 5.1,3.93 10.98,7.22 17.46,9.66 1.03,0.43 1.86,0.86 2.81,1.26 6.56,2.3 13.61,4.13 20.69,5.08l0.8 0c7.57,1.11 15.1,1.23 22.32,0.63l0.92 0c7.54,-0.94 14.44,-2.4 20.69,-4.98 13.05,-5.36 20.27,-13.73 21.41,-22.64l-216.13 1642.26c-1.26,9.08 -8.46,17.37 -21.26,22.55 -2.98,1.35 -6.08,2.24 -9.28,3.09 -2.61,0.63 -5.19,1.23 -7.77,1.46 -1.27,0.09 -2.53,0.29 -3.73,0.41 -0.28,0.19 -0.63,0.19 -0.86,0.19 -0.63,0 -1.37,0.24 -2.01,0.24 -2.03,0.08 -4.18,0.19 -6.21,0.19l0.19 -0.74 -0.19 0.74c-1.95,0 -3.9,0 -6.02,-0.11 -2.06,-0.08 -3.99,-0.32 -5.87,-0.63 -0.72,-0.09 -1.58,-0.2 -2.19,-0.29 -0.34,0 -0.68,-0.11 -0.85,-0.11 -1.09,-0.11 -2.18,-0.11 -3.21,-0.28 -2.24,-0.43 -4.42,-0.97 -6.65,-1.46 -2.49,-0.52 -5.18,-1.26 -7.6,-2.1 -1.15,-0.28 -2.18,-0.89 -3.21,-1.28 -0.97,-0.35 -2.01,-0.66 -2.87,-1.09 -1.83,-0.69 -3.66,-1.32 -5.07,-2.04 -4.52,-2.2 -8.89,-4.78 -12.41,-7.65 -0.31,-0.11 -0.68,-0.34 -0.83,-0.51 -1,-0.95 -1.8,-1.69 -2.63,-2.58 -1.35,-1.26 -2.84,-2.49 -3.99,-3.83 -0.11,-0.12 -0.11,-0.2 -0.23,-0.32 -1.32,-1.44 -2.4,-3.09 -3.32,-4.56 -0.17,-0.32 -0.35,-0.71 -0.46,-1.12 -0.28,-0.34 -0.34,-0.71 -0.57,-1.03 -0.29,-0.75 -0.63,-1.15 -0.8,-1.78 -0.63,-1.34 -1.15,-2.49 -1.26,-3.75 -0.11,-0.17 -0.11,-0.25 -0.11,-0.37 -0.11,-0.31 -0.11,-0.71 -0.11,-0.91 -0.03,-0.86 -0.2,-1.55 -0.35,-2.19 0,-1.15 0,-2.52 0.15,-3.55l0 -0.6 216.1 -1642.38c-0.23,2.21 -0.11,4.16 0.23,6.37z"/>
   <path class="fil3" d="M761.72 1436.64c-25.56,10.54 -28.72,32.87 -6.86,49.63 21.75,17.05 60.18,22.21 85.68,11.66 25.56,-10.63 28.77,-32.78 6.99,-49.83 -21.75,-16.85 -60.29,-21.92 -85.82,-11.46z"/>
   <path class="fil2" d="M155.71 1639.06c0.23,0.31 0.51,0.51 0.75,0.83 0.97,1.54 2.52,2.98 4.3,4.35 0.28,0.28 0.57,0.6 1.03,0.8 1.84,1.35 3.9,2.69 6.04,3.72 1.52,0.63 3.44,1.12 5.27,1.67 1.38,0.52 2.64,1.15 4.35,1.43 6.19,1.35 13.16,1.67 19.97,1.23 1.06,-0.08 2.1,-0.08 3.13,-0.2 6.88,-0.71 13.96,-1.94 20.84,-4.13 0.28,0 0.68,-0.11 0.91,-0.17 7.08,-2.32 14.02,-5.5 20.27,-9.23 0.23,-0.19 0.54,-0.31 0.91,-0.4 6.22,-3.96 11.78,-8.29 16.51,-13.32 9.52,-10.24 12.56,-20.81 9.58,-29.49l505.84 1577.25c2.75,8.8 -0.28,19.32 -9.54,29.67 -2.14,2.26 -4.58,4.67 -7.22,6.73 -1.95,1.54 -4.01,3.06 -6.3,4.52 -1.09,0.66 -2.09,1.35 -3.09,1.97 -0.37,0.18 -0.63,0.29 -0.77,0.52 -0.58,0.28 -1.26,0.71 -1.78,1.03 -1.71,0.92 -3.61,1.84 -5.44,2.78l-0.17 -0.6 0.17 0.6c-1.89,0.83 -3.67,1.67 -5.5,2.49 -1.84,0.71 -3.79,1.43 -5.7,2.1 -0.52,0.28 -1.27,0.4 -2.06,0.68 -0.18,0.11 -0.46,0.11 -0.8,0.2 -0.86,0.2 -1.95,0.75 -2.98,0.97 -2.29,0.6 -4.44,1.2 -6.71,1.6 -2.66,0.58 -5.24,1.03 -7.71,1.35 -1.26,0.23 -2.29,0.15 -3.44,0.23 -0.89,0.12 -2.14,0.12 -3.09,0.12 -1.69,0.19 -3.64,0.37 -5.47,0.37 -4.92,0 -9.83,-0.49 -14.64,-1.49 -0.24,0 -0.46,-0.11 -0.8,-0.26 -1.26,-0.19 -2.23,-0.71 -3.5,-1.11 -1.66,-0.54 -3.61,-1.03 -5.07,-1.87 -0.23,0 -0.45,-0.11 -0.45,-0.11 -1.78,-0.83 -3.33,-1.63 -4.87,-2.78 -0.4,-0.23 -0.69,-0.51 -0.86,-0.75 -0.28,-0.28 -0.8,-0.37 -1.03,-0.71 -0.45,-0.4 -1.09,-0.71 -1.49,-1.23 -1.03,-0.83 -1.93,-1.86 -2.75,-2.89 0,0 -0.11,-0.23 -0.11,-0.28 -0.17,-0.23 -0.52,-0.66 -0.58,-0.86 -0.4,-0.6 -0.89,-1.03 -1.15,-1.75 -0.54,-1.15 -1.11,-2.04 -1.58,-3.3 -0.11,-0.11 -0.11,-0.32 -0.23,-0.51l-505.7 -1577.36c0.63,2.06 1.61,3.92 2.75,5.59z"/>
   <path class="fil3" d="M162.58 1604.02c-18.83,20.32 -12.01,41.75 14.87,47.85 26.88,5.99 63.85,-5.78 82.53,-26.25 18.65,-20.46 11.97,-41.9 -14.93,-47.89 -26.77,-6.02 -63.82,5.7 -82.47,26.28z"/>
   <path class="fil4" d="M800.35 1648.98c-5.44,4.1 -11.75,7.65 -18.68,10.32l0 0c-0.15,0 -0.52,0.35 -0.77,0.46l0 0c-6.79,2.55 -14.07,4.61 -21.55,5.67l0 0c-0.26,0 -0.69,0.09 -0.8,0.09l0 0c-7.31,0.94 -14.44,1.2 -21.29,0.74l0 0c-1.03,0 -2.06,-0.19 -3.07,-0.31l0 0c-6.87,-0.72 -13.64,-1.98 -19.6,-4.33l0 0c-1.46,-0.75 -2.72,-1.49 -3.98,-2.32l0 0c-1.72,-0.68 -3.55,-1.52 -4.93,-2.44l0 0c-2.12,-1.37 -4.01,-2.92 -5.61,-4.67l0 0c-0.2,-0.11 -0.46,-0.4 -0.8,-0.71l0 0c-1.46,-1.78 -2.64,-3.44 -3.67,-5.18l0 0c-0.11,-0.43 -0.19,-0.52 -0.19,-0.72l0 0c-1.03,-1.97 -1.72,-4.15 -2.06,-6.13l245.81 1638.06c0.09,0.32 0.09,0.41 0.09,0.52l0 0c0.25,1.35 0.51,2.38 0.92,3.49l0 0c0.17,0.66 0.63,1.41 0.97,2.1l0 0c0.06,0.19 0.24,0.43 0.24,0.71l0 0c0.11,0.2 0.23,0.4 0.45,0.51l0 0c0.58,1.06 1.09,2.19 2.06,3.22l0 0c0.34,0.51 0.77,1.06 1.29,1.45l0 0c0.32,0.26 0.54,0.67 0.75,1.03l0 0c0.49,0.2 0.57,0.41 0.94,0.72l0 0c1.26,1.26 2.64,2.35 4.33,3.53l0 0c0,0.08 0.23,0.08 0.37,0.17l0 0c1.34,1.03 3.09,1.69 4.78,2.61l0 0c1.03,0.51 2.12,1.23 3.23,1.75l0 0c0.32,0.15 0.43,0.15 0.89,0.32l0 0c4.24,1.86 9.17,3.09 14.18,3.83l0 0c1.84,0.52 3.73,0.52 5.44,0.61l0 0c0.95,0.11 1.98,0.23 2.9,0.34l0 0c1.26,0.08 2.29,0.23 3.49,0.28l0 0c2.58,0.2 5.22,0 7.85,-0.06l0 0c2.2,-0.15 4.7,-0.23 6.85,-0.57l0 0c1.03,-0.09 2.18,-0.29 3.21,-0.41l0 0c0.23,0 0.45,-0.2 0.68,-0.2l0 0c0.8,0 1.61,-0.11 2.27,-0.31l0 0c1.98,-0.24 3.9,-0.63 5.91,-1.12l0 0c2.01,-0.43 4.07,-0.94 5.93,-1.54l0 0c1.93,-0.54 3.87,-1.27 5.73,-1.89l0 0c0.68,-0.32 1.2,-0.52 2.01,-0.8l0 0c0.17,-0.15 0.28,-0.15 0.57,-0.23l0 0c1.23,-0.41 2.44,-1.01 3.53,-1.46l0 0c2.55,-1.15 4.84,-2.23 7.05,-3.58l0 0c2.81,-1.69 5.59,-3.41 8.08,-5.5l0 0c10.92,-8.68 15.56,-18.49 14.3,-27.6l0 0 -245.84 -1638.14c1.27,9.08 -3.21,19.06 -14.24,27.71l0 0z"/>
   <path class="fil5" d="M707.5 1611.86c-21.75,17.08 -18.43,39.4 7.11,49.78 25.5,10.08 63.87,4.52 85.74,-12.67 21.78,-17.22 18.59,-39.49 -6.94,-49.71 -25.79,-10.32 -64.07,-4.65 -85.91,12.61z"/>
   <path class="fil6" d="M626.43 1498.96c-5.87,3.41 -12.49,6.13 -19.71,7.85l0 0c-0.35,0 -0.71,0.11 -0.8,0.11l0 0c-7.05,1.75 -14.78,2.78 -22.27,2.78l0 0 -0.86 0c-7.19,0 -14.35,-0.89 -21.14,-2.38l0 0c-1.03,-0.08 -2.04,-0.4 -2.98,-0.51l0 0c-6.85,-1.72 -13.24,-3.9 -18.83,-7.11l0 0c-1.37,-0.83 -2.4,-1.78 -3.73,-2.61l0 0c-1.58,-1.12 -3.23,-2.06 -4.44,-3.18l0 0c-1.89,-1.63 -3.56,-3.61 -4.87,-5.27l0 0c-0.17,-0.19 -0.41,-0.74 -0.8,-1.03l0 0c-1.2,-1.97 -2.12,-3.75 -2.92,-5.56l0 0c-0.11,-0.34 -0.17,-0.54 -0.17,-0.77l0 0c-0.71,-2.12 -1.06,-4.33 -1.15,-6.43l19.17 1656.34 0 0.63c0,1.23 0.09,2.26 0.58,3.4l0 0c0,0.8 0.23,1.55 0.51,2.3l0 0c0,0.28 0.11,0.51 0.17,0.68l0 0c0,0.23 0,0.43 0.23,0.63l0 0c0.46,1.15 0.97,2.27 1.61,3.41l0 0c0.4,0.63 0.69,1.03 1.2,1.66l0 0c0.2,0.35 0.41,0.6 0.69,1.03l0 0c0.17,0.32 0.26,0.75 0.75,0.95l0 0c1.03,1.43 2.26,2.78 3.75,4.13l0 0c0,0.11 0.37,0.11 0.4,0.19l0 0c1.2,1.15 2.7,2.15 4.3,3.18l0 0c1.15,0.75 2.01,1.58 3.04,2.18l0 0c0.41,0.11 0.52,0.2 0.86,0.54l0 0c3.98,2.35 8.46,4.24 13.39,5.68l0 0c1.94,0.6 3.61,1 5.5,1.26l0 0c0.92,0.28 1.8,0.57 2.75,0.8l0 0c1.23,0.11 2.26,0.51 3.29,0.83l0 0c2.72,0.45 5.27,0.71 8.03,0.94l0 0c2.18,0.29 4.47,0.37 6.85,0.37l0 0 3.15 0c0.35,0 0.41,-0.08 0.69,0l0 0c0.86,0 1.66,0 2.32,-0.08l0 0c1.97,0 4.04,0 5.95,-0.29l0 0c2.06,-0.23 4.01,-0.43 6.08,-0.74l0 0c2.06,-0.29 4.01,-0.58 5.96,-1.12l0 0c0.69,-0.15 1.35,-0.34 2.06,-0.51l0 0c0.2,-0.09 0.46,-0.09 0.71,-0.09l0 0c1.26,-0.26 2.41,-0.63 3.5,-0.94l0 0c2.63,-0.72 5.27,-1.67 7.68,-2.61l0 0c2.95,-1.23 5.93,-2.81 8.68,-4.33l0 0c11.95,-7.16 18.08,-16.22 17.94,-25.47l0 0 -19.31 -1656.28c0,9.17 -5.59,18.37 -17.8,25.42l0 0z"/>
   <path class="fil5" d="M539.66 1449.54c-23.87,13.99 -23.73,36.48 0.18,50.15 23.95,13.67 62.75,13.35 86.6,-0.71 23.98,-14.1 23.75,-36.59 -0.18,-50.15 -23.95,-13.75 -62.69,-13.35 -86.6,0.71z"/>
   <path class="fil1" d="M1162.38 2597.03c-220.51,127.15 -576.51,127.15 -795.76,0 -151.22,-87.97 -197.41,-213.77 -138.69,-324.93l107.29 0c-62.36,95.16 -28.09,206.78 103.65,283.38 179.84,104.59 472,104.59 652.93,0 132.82,-76.75 168.21,-188.22 106.75,-283.38l106.26 0c57.57,111.16 9.98,236.84 -142.42,324.93z"/>
   <path class="fil7" d="M203.18 2368.14l0 0.26 0 0.26c0.05,5.38 0.82,10.6 1.46,16.02l0 0c0.51,5.87 0.94,11.55 1.92,17.56l0 0c0.86,4.87 2.35,9.52 3.61,14.25l0 0c1.49,5.73 2.79,11.29 4.93,17.07l0 0c1.72,4.44 3.67,8.89 5.73,13.47l0 0c2.49,5.85 5.13,11.87 8.22,17.65l0 0c2.29,4.25 4.93,8.25 7.42,12.53l0 0c4.13,6.53 8.46,13.32 13.26,19.75l0 0c4.82,6.16 9.52,12.32 14.79,18.4l0 0c1.34,1.34 2.43,2.92 3.75,4.24l0 0c7.22,7.96 15.25,15.7 23.67,23.26l0 0c5.53,4.93 11.54,9.72 17.65,14.48l0 0c5.16,4.24 10,8.28 15.3,12.29l0 0c6.53,4.65 13.44,9.08 20.37,13.58l0 0c7.11,4.61 13.78,9.28 21.35,13.82l0 0c16.99,9.72 34.7,18.39 53.16,26.77l0 0c5.25,2.37 10.75,4.44 16.11,6.85l0 0c14.41,5.99 29.17,11.69 44.19,16.64l0 0c5.35,2.06 10.66,3.93 16.1,5.68l0 0c9.6,3.01 19.32,5.61 29.06,8.16l0 0c7.31,2.06 14.74,4.24 22.21,5.99l0 0c10.01,2.49 20.46,4.44 30.66,6.62l0 0c7.25,1.45 14.42,3.09 21.61,4.35l0 0c21.03,3.81 42.44,6.68 63.96,8.97l0 0c6.45,0.71 13.21,1.15 19.92,1.58l0 0c12.66,1.12 25.36,2.18 38.14,2.66l0 0c7.94,0.23 16.05,0.43 24.08,0.52l0 0c10.28,0.19 20.66,0.4 30.84,0.19l0 0c8.62,-0.19 17.39,-0.37 26.13,-0.71l0 0c9.51,-0.32 19,-0.94 28.46,-1.54l0 0c8.63,-0.54 17.16,-1.35 25.7,-2.19l0 0c9.52,-0.83 18.75,-1.92 28.23,-3.09l0 0c8.46,-0.91 16.82,-2.23 25.28,-3.64l0 0c9.91,-1.52 19.85,-3.18 29.8,-5.16l0 0c7.71,-1.43 15.44,-2.97 23.06,-4.64l0 0c11.9,-2.61 23.61,-5.47 35.22,-8.59l0 0c6.42,-1.75 12.7,-3.3 19.06,-5.04l0 0c20.63,-6.08 40.83,-12.84 60.47,-20.46l0 0c9.83,-3.9 19.77,-8.17 29.4,-12.64l0 0c4.42,-1.84 9.17,-3.61 13.61,-5.87l0 0c14.18,-6.65 28.02,-13.75 41.29,-21.4l0 0c111.05,-64.22 166.58,-148.27 166.18,-232.09l3.15 1104.27 0 0c0.23,83.9 -55.13,167.87 -166.12,231.95l0 0c-13.27,7.65 -27.11,14.9 -41.41,21.63l0 0c-4.93,2.3 -10,4.25 -14.99,6.48l0 0c-8.25,3.78 -16.36,7.62 -25.02,11l0 0c-0.83,0.29 -1.75,0.41 -2.72,0.8l0 0c-19.63,7.68 -39.92,14.48 -60.96,20.61l0 0c-1.34,0.37 -3.01,1.11 -4.56,1.54l0 0c-4.7,1.32 -9.25,2.15 -13.96,3.47l0 0c-11.71,2.98 -23.61,6.02 -35.64,8.83l0 0c-3.09,0.63 -6.1,1.54 -9.2,2.18l0 0c-4.33,0.92 -9.03,1.41 -13.5,2.35l0 0c-10.09,1.86 -20.09,3.64 -30.09,5.27l0 0c-4.07,0.54 -7.94,1.43 -12.21,1.97l0 0c-4.27,0.72 -8.74,1.03 -13.15,1.52l0 0c-9.4,1.18 -18.89,2.3 -28.54,3.22l0 0c-4.09,0.34 -8.51,1.15 -12.92,1.49l0 0c-3.98,0.2 -7.99,0.2 -12.04,0.63l0 0c-9.68,0.57 -19.54,1.09 -29.11,1.52l0 0c-4.78,0.23 -9.51,0.63 -14.1,0.71l0 0c-3.89,0 -7.53,-0.09 -11.32,-0.09l0 0c-10.46,0.09 -20.72,0.09 -31.01,-0.08l0 0c-5.16,0 -10.32,0.08 -15.25,0l0 0c-3.06,-0.09 -6.04,-0.54 -9.02,-0.75l0 0c-13.01,-0.49 -25.77,-1.46 -38.54,-2.58l0 0c-5.04,-0.28 -9.94,-0.4 -14.82,-0.85l0 0c-1.54,-0.18 -2.87,-0.46 -4.64,-0.69l0 0c-21.61,-2.29 -43.02,-5.19 -64.11,-8.89l0 0c-0.97,-0.23 -2.01,-0.34 -3.04,-0.4l0 0c-5.93,-1.18 -11.84,-2.58 -17.63,-3.84l0 0c-10.66,-2.06 -21.31,-4.3 -31.8,-6.85l0 0c-7.31,-1.75 -14.42,-3.79 -21.7,-5.79l0 0c-10,-2.78 -19.71,-5.27 -29.4,-8.39l0 0c-1.87,-0.69 -4.1,-1.01 -5.91,-1.84l0 0c-3.53,-0.92 -6.45,-2.4 -9.86,-3.53l0 0c-15.21,-5.27 -30.03,-10.83 -44.67,-17.07l0 0c-5.28,-2.24 -10.67,-4.42 -15.88,-6.68l0 0c-18.31,-8.25 -36.19,-17.08 -53.12,-26.91l0 0c-2.3,-1.32 -4.65,-2.61 -6.79,-3.92l0 0c-4.99,-3.18 -9.46,-6.51 -14.42,-9.58l0 0c-6.9,-4.47 -13.9,-8.91 -20.32,-13.55l0 0c-5.59,-4.16 -10.63,-8.6 -15.99,-12.73l0 0c-5.78,-4.67 -11.75,-9.42 -16.96,-14.07l0 0c-1.12,-1.03 -2.49,-1.97 -3.53,-2.87l0 0c-7.34,-6.64 -14.07,-13.58 -20.37,-20.49l0 0c-1.15,-1.35 -2.36,-2.92 -3.56,-4.35l0 0c-3.75,-4.16 -7.53,-8.34 -10.97,-12.7l0 0c-1.6,-2.01 -2.52,-3.81 -3.9,-5.91l0 0c-4.92,-6.42 -9.2,-12.95 -13.26,-19.45l0 0c-1.58,-2.78 -4.01,-5.44 -5.47,-8.37l0 0c-0.77,-1.32 -1.26,-2.81 -2.09,-4.13l0 0c-2.96,-5.79 -5.59,-11.58 -8,-17.37l0 0c-1.6,-3.49 -3.7,-6.85 -5.01,-10.46l0 0c-0.43,-1.11 -0.51,-2.46 -0.92,-3.72l0 0c-2.06,-5.16 -3.21,-10.54 -4.7,-15.9l0 0c-1.03,-3.92 -2.66,-7.97 -3.33,-11.98l0 0c-0.31,-1.17 -0.31,-2.26 -0.57,-3.23l0 0c-0.92,-5.56 -1.37,-11.35 -1.86,-16.94l0 0c-0.43,-4.13 -1.32,-8.14 -1.32,-12.1l0 0c-0.06,-1.75 -0.06,-3.44 -0.06,-4.96l-3.18 -1104.25z"/>
   <g>
    <image x="-0" y="3281.3" width="5799.86" height="3387.7" xlink:href="no-chat_Images\no-chat_ImgID2.png"/>
   </g>
   <path class="fil8" d="M5406.24 5345.47c-25.51,95.09 -1660.83,965.9 -1660.83,965.9 -105.91,61.38 -318.2,51.87 -425.06,-10.18 -739.34,-426.89 -2899.57,-1687.54 -2899.57,-1687.54 -106.28,-61.41 -138.64,-220.74 -33.09,-282.03l1703.67 -934.4c0,0 3556.53,1057.22 3314.87,1948.25z"/>
   <path class="fil9" d="M5418.27 5270.56l-1672.83 972.28c-105.94,61.13 -318.23,52.1 -425.09,-9.6 -739.34,-427.18 -2918.1,-1698.46 -2918.1,-1698.46 -107.06,-62.18 -107.35,-161.51 -1.58,-222.92l1690.69 -982.76 3326.9 1941.46z"/>
   <path class="fil8" d="M5859.42 2941.07c-1.52,-12.27 -3.61,-24.91 -6.25,-37.63 -1.26,-3.61 -1.78,-7.14 -2.92,-10.97 -3.41,-12.81 -7.13,-26.05 -12.41,-38.23 -0.28,-2.18 -1.26,-4.67 -1.86,-6.13 -4.5,-10.72 -9.57,-21.27 -15.01,-31.3 -3.07,-5.27 -5.19,-9.59 -8.72,-14.56 -5.36,-8.48 -10.63,-16.85 -16.59,-23.78 -1.01,-2.38 -3.3,-5.27 -4.44,-6.85 -7.82,-10.54 -16.48,-18.91 -25.05,-27.2 -2.86,-2.14 -4.26,-3.61 -7.22,-5.78 -9.42,-8.49 -19.28,-15.71 -30.2,-21.92l-2938.04 -1696c-11.27,-6.65 -22.75,-11.14 -34.34,-14.7 -4.04,-1.23 -7.19,-2.18 -11.6,-3.01 -5.1,-1.63 -10.52,-2.27 -15.73,-3.09 -4.67,-0.71 -9.37,-0.71 -14.04,-0.71l-10.43 0c-7.48,0.71 -14.18,1.54 -21.06,3.32l83.42 -20.61c4.78,-1.43 9.77,-2.61 14.64,-2.66l6.65 0c3.53,-0.54 6.1,-0.54 10.49,-0.54l6.82 0c2.01,0 4.41,0.54 7.16,0.6 4.44,0.86 9.71,1.78 15.1,3.01 2.86,0.34 4.67,0.34 7.65,1.28 1.37,0.49 3.66,1.23 4.35,2.15 11.54,3.13 23.61,7.56 34.56,14.41l2937.9 1696.18c10.89,6.01 20.84,13.75 30.35,22.35 1.92,1.55 4.24,3.21 5.82,4.65 8.83,8.39 18.08,18.11 25.88,27.82 1.69,1.95 3.06,3.7 4.39,5.7 2.97,3.9 6.87,7.82 9.91,12.49 2.78,3.84 4.27,9.11 7.22,13.05 3.3,4.44 5.93,8.97 8.37,13.52 1.2,2.58 2.58,4.67 3.73,6.9 4.3,8.63 8.65,17.8 11.52,27.14 0.89,1.11 1.52,2.14 1.86,2.89l0 0.37c4.48,9.83 7.68,19.94 10.26,29.97 0.97,3.21 1.09,7.16 2.12,10.06 1.01,3.13 1.55,6.39 2.18,8.85 1.35,4.07 2.21,7.91 2.55,11.61 2.24,9.17 3.15,17.88 4.07,27.08 0,1.43 0.69,3.09 1.03,4.35l0 1.67c1.15,13.01 1.15,26.16 1.15,39.28 0,0.95 -0.74,1.95 -0.74,2.66 -0.41,16.97 -2.98,32.99 -6.19,49.63l-531.46 2327.06 -70.58 41.01 518.93 -2347.89c3.3,-15.94 5.39,-33.1 6.25,-49.95 0,-14.16 0,-28.97 -0.86,-43.3 -0.57,-1.38 -0.57,-2.81 -0.57,-4.27z"/>
   <path class="fil9" d="M2790.71 1020.73c-95.42,-55.51 -195.98,-1.87 -223.38,120.44l-475.98 2187.94 3261.74 1979.86 501.52 -2270.37c27.05,-121.99 -29.41,-266.02 -125.86,-321.84l-2938.04 -1696.02z"/>
   <polygon class="fil10" points="2220.64,3209.27 5286.46,5089.57 5739.66,3102.75 2632.72,1329.55 "/>
   <path class="fil11" d="M3221.21 4435.1l-92.45 53.96 121.96 70.44 92.1 -54.04 -121.61 -70.35zm-1181.25 -574.84l92.51 -53.33 -121.42 -70.52 -92.67 53.3 121.59 70.55zm2095.24 1209.46l92.45 -53.82 -121.85 -70.41 -92.21 54.34 121.62 69.89zm482.08 171.94l-91.5 53.61 122.19 70.84 91.76 -54.13 -122.45 -70.32zm-185.58 -107.92l-92.96 53.79 122.5 70.78 91.93 -53.45 -121.47 -71.13zm-1909.28 -1101.71l-92.56 53.77 122.24 70.78 92.85 -53.64 -122.53 -70.9zm186.15 107.41l-92.1 53.78 121.24 70.29 93.24 -53.26 -122.39 -70.81zm-511.63 -295.91l-93.13 53.87 122.65 70.81 91.93 -54.28 -121.45 -70.4zm1722.05 994.34l-92.04 53.76 122.59 70.67 92.12 -54.05 -122.67 -70.38zm-884.42 -510.19l-92.16 53.24 122.07 70.81 91.93 -53.1 -121.85 -70.95zm125.89 681.91l-132.48 77.34 121.9 70.61 132.71 -77.54 -122.13 -70.4zm-1317.05 -1034.84l132.28 -77.34 -121.62 -70.32 -133.1 76.83 122.45 70.83zm1020 863.12l-122.14 -70.21 -132.37 77.03 121.97 71.07 132.54 -77.89zm115.4 -208.19l121.82 70.69 132.59 -77.23 -121.54 -70.49 -132.88 77.03zm-1271.54 -91.25l133.32 -76.68 -121.9 -70.12 -132.89 77.08 121.47 69.72zm1823.78 256.22l-133.28 76.86 121.59 70.44 132.93 -76.71 -121.24 -70.58zm272.26 954.2l132.08 -77.6 -121.99 -70.52 -132.16 77.37 122.07 70.75zm135.01 -564.73l133.22 -77.09 -121.53 -70.18 -133.36 76.74 121.68 70.52zm-2045.52 -752.34l132.65 -77.75 -121.93 -69.89 -133.17 77.14 122.45 70.49zm1676.45 967.55l132.25 -77.32 -122.02 -70.44 -133 77.32 122.76 70.44zm-2280.44 -1102.27l132.14 -77.23 -121.22 -69.97 -133.22 77.08 122.3 70.12zm2095.04 1209.56l132.56 -76.77 -121.96 -70.52 -132.76 77.23 122.16 70.07zm-691.05 -1195.88l-132.97 77.32 121.91 70.61 132.33 -77.75 -121.28 -70.18zm-430.36 -94.33l132.51 -76.97 -121.11 -70.41 -133.62 77 122.22 70.38zm59.78 309.14l-132.8 77.88 122.39 70.35 132.71 -77.28 -122.31 -70.95zm1665.88 1115.94l132.59 -77.46 -122.07 -70.21 -132.71 77.26 122.19 70.41zm-2514.42 -1452.01l132.97 -76.94 -122.02 -70.32 -132.89 76.85 121.94 70.41zm2883.54 1236.43l133.25 -77.52 -122.02 -69.72 -132.36 76.94 121.12 70.3zm-1563.51 -687.93l121.5 69.66 132.83 -77.06 -120.88 -70.49 -133.45 77.88zm1378.48 795.42l133.04 -77.09 -121.52 -70.41 -133.25 77.32 121.73 70.18zm-1664.62 -1115.05l-133 77.26 121.5 70.75 133.28 -77.94 -121.79 -70.07zm-430.62 -94.42l133.62 -77.25 -122.07 -70.35 -133 77.23 121.45 70.37zm1676.62 967.59l133.28 -77.23 -121.73 -70.4 -133.45 77.17 121.9 70.47zm-407.81 -389.3l-133.05 77.28 121.44 69.9 133.17 -76.83 -121.56 -70.35zm-1688 -820.34l133.92 -77.26 -122.25 -70.38 -133.05 77.23 121.38 70.41zm2840.06 1424.76l132.4 -76.77 -122.5 -70.52 -132.59 77.23 122.7 70.07zm-973.76 80.98l132.71 -77.32 -122.54 -70.72 -133.16 76.88 122.99 71.15zm-1540.82 -1532.24l132.71 -77.43 -121.9 -70.41 -132.99 77.43 122.19 70.41zm2144.55 1666.53l132.62 -77.23 -121.98 -70.72 -133.1 77.37 122.47 70.57zm-2514.36 -1451.7l132.88 -76.97 -122.24 -71.07 -132.88 77.75 122.24 70.29zm-184.72 107.63l132.74 -77.11 -122.42 -70.48 -132.8 77.33 122.48 70.26zm2514.31 1451.79l132.94 -77.62 -122.71 -70.5 -132.54 76.92 122.3 71.21zm-272.63 -954.65l-133.4 77.54 122.65 70.69 132.76 -77.69 -122.02 -70.55zm-370.09 215.44l-132.94 76.97 122.42 70.41 132.71 -77.09 -122.19 -70.29zm-1452.39 -470.4l132.48 -77.28 -122.65 -70.81 -132.28 77 122.45 71.09zm613.79 -13.55l-132.59 77 122.3 70.61 132.83 -76.85 -122.54 -70.75zm-429.19 -94.17l132.89 -77.17 -122.42 -70.64 -132.93 77.43 122.47 70.38zm1218.47 120.94l-132.93 77.02 122.65 70.84 132.48 -76.85 -122.2 -71.01zm-848.54 -336.14l132.48 -77.23 -121.9 -69.97 -133.05 77.08 122.47 70.12zm478.91 551.46l-132.94 76.77 122.31 70.84 133.27 -77.23 -122.64 -70.39zm1197.03 416.72l132.93 -77.14 -121.96 -71.01 -133.4 77.43 122.42 70.72zm-369.79 215.24l132.97 -77.85 -122.59 -70.3 -132.65 76.68 122.28 71.47zm-876.45 -1089.31l-133.05 77.54 122.48 70.41 132.88 -77.37 -122.31 -70.58zm1385.83 954.31l133.3 -77.06 -122.67 -70.92 -132.3 77.17 121.68 70.81zm-418.95 -241.63l132.47 -77.54 -121.5 -70.41 -133.06 77.26 122.08 70.69zm-369.79 214.75l133.06 -76.94 -122.28 -70.49 -133.4 76.88 122.62 70.55zm418.78 241.83l132.82 -76.86 -122.04 -71.04 -132.54 77.69 121.76 70.21zm-456.98 -846.54l-133.06 76.91 121.62 71.16 133.45 -77.17 -122.02 -70.9zm-1822.77 -255.24l133.1 -77.75 -122.47 -70.18 -133 77.08 122.37 70.84zm614.07 -13.84l-132.82 77.28 122.45 70.67 132.8 -77.52 -122.42 -70.44zm656.81 104.08l121.85 71.09 133.28 -77.28 -122.65 -70.81 -132.48 77zm-115.11 208.41l-122.79 -70.18 -132.89 77.14 122.65 70.66 133.02 -77.63zm-601.29 -621.71l132.88 -77.03 -122.25 -70.52 -132.59 77.06 121.97 70.5zm429.41 94.63l-132.19 76.67 121.85 70.92 132.71 -77.11 -122.37 -70.48zm468.45 698.92l-132.39 77.26 122.11 70.18 132.73 -76.74 -122.45 -70.69zm-1267.61 -578.52l133.05 -76.71 -122.41 -71.12 -132.94 77.34 122.31 70.49zm1910.52 1317.39l132.76 -77 -122.54 -70.84 -132.42 77.37 122.2 70.47zm229.65 -295.76l133.51 -76.97 -122.07 -70.29 -133.6 76.74 122.16 70.52zm-407.55 -389.47l-133.33 77.14 121.93 70.69 133.31 -77.26 -121.9 -70.58zm-1268.76 -578.17l133.36 -76.94 -121.99 -70.81 -133.39 77.4 122.02 70.35zm849.86 336.39l-133.05 76.86 122.07 70.83 132.8 -77.28 -121.82 -70.41zm-1269.1 -577.91l133.62 -77.31 -121.85 -71.16 -133.1 77.66 121.33 70.81zm2514.61 1451.38l133.39 -77.26 -121.85 -70.69 -133.9 77.35 122.36 70.61zm-1665.39 -1115.82l-132.48 77.34 122.16 70.73 133 -77 -122.68 -71.07zm6.85 158.41l121.39 70.35 133.74 -77.26 -121.81 -71.04 -133.32 77.94zm1378.72 796.02l133.45 -77.23 -122.02 -70.87 -133.22 77.66 121.79 70.44zm-826.37 -631.82l-133.27 77.49 122.24 70.78 132.99 -77.92 -121.96 -70.35zm407.98 390.08l133.28 -77.61 -122.37 -70.58 -133.1 77.49 122.19 70.69zm-1676.28 -968.03l133.08 -77.12 -122.07 -70.92 -133.25 78.03 122.24 70.01zm429.88 94.06l-133.17 77.55 122.24 70.44 133.06 -77.35 -122.13 -70.64zm876.94 1088.51l132.54 -77.52 -1379.23 -795.73 -133 77.03 1379.69 796.21zm-1269.68 -1790.26l2961.8 1710.17 -988.46 575.22 -2962.67 -1710.34 989.33 -575.05z"/>
   <polygon class="fil12" points="2954.42,4461.74 2821.54,4539.12 2699.06,4468.7 2832.11,4391.65 "/>
   <polygon class="fil12" points="1975.68,3897.41 1843.43,3974.73 1720.96,3903.92 1854.06,3827.09 "/>
   <polygon class="fil12" points="2534.9,4219.85 2402.42,4297.04 2279.95,4226.95 2412.99,4149.87 "/>
   <polygon class="fil12" points="2165.36,4435.1 2032.49,4512.27 1910.01,4441.89 2042.97,4364.46 "/>
   <polygon class="fil12" points="2132.48,3806.94 2039.98,3860.26 1918.36,3789.68 2011.03,3736.41 "/>
   <polygon class="fil12" points="2318.38,3913.92 2226.45,3968.23 2103.83,3897.42 2196.94,3843.54 "/>
   <polygon class="fil12" points="2115.94,3977.93 1983.24,4055.35 1861.04,3984.94 1994.04,3907.52 "/>
   <polygon class="fil12" points="1791.67,4004.59 1657.76,4081.84 1536.37,4011.44 1669.42,3934.21 "/>
   <polygon class="fil12" points="2255.59,4058.57 2122.7,4135.6 2000.74,4065.11 2133.33,3988.05 "/>
   <polygon class="fil12" points="2644.95,4102.93 2552.13,4156.58 2429.88,4085.77 2522.44,4032.01 "/>
   <polygon class="fil12" points="1931.18,4085.78 1797.56,4163.09 1676.23,4092.31 1809.34,4014.65 "/>
   <polygon class="fil12" points="1606.62,4112.52 1473.65,4189.47 1351.73,4119.06 1484.6,4042.2 "/>
   <polygon class="fil12" points="2394.92,4139.42 2262.44,4216.42 2140.19,4146.02 2273.81,4069.01 "/>
   <polygon class="fil12" points="2070.76,4166.2 1937.71,4243.29 1815.46,4173.31 1948.68,4095.25 "/>
   <polygon class="fil12" points="2830.97,4210.25 2737.73,4263.48 2616.49,4193.2 2708.58,4139.41 "/>
   <polygon class="fil12" points="1746.3,4193.21 1613.43,4270.2 1491.18,4199.89 1624.06,4122.17 "/>
   <polygon class="fil12" points="1420.93,4219.85 1288.8,4297.04 1166.49,4226.95 1299.71,4149.87 "/>
   <polygon class="fil12" points="2210.56,4246.66 2076.94,4323.91 1955.49,4253.53 2088.49,4176.31 "/>
   <polygon class="fil12" points="1886,4273.91 1752.94,4350.62 1630.64,4280.13 1763.57,4202.79 "/>
   <polygon class="fil12" points="2674.48,4300.69 2541.77,4377.8 2419.92,4306.91 2552.11,4230.2 "/>
   <polygon class="fil12" points="2350.19,4327.67 2216.79,4404.61 2094.77,4334.26 2228.17,4256.86 "/>
   <polygon class="fil12" points="2025.45,4354.03 1892.8,4431.78 1770.32,4361.28 1903.49,4284.17 "/>
   <polygon class="fil12" points="3156.42,4398.61 3064.48,4451.74 2942.41,4380.93 3034.56,4327.66 "/>
   <polygon class="fil12" points="2814.05,4380.93 2681.74,4458.66 2559.84,4388.06 2692.78,4310.74 "/>
   <polygon class="fil12" points="2489.71,4408.01 2356.65,4485.36 2234.41,4414.92 2367.57,4337.37 "/>
   <polygon class="fil12" points="1840.57,4461.74 1707.29,4538.46 1585.79,4468.7 1718.67,4391.65 "/>
   <polygon class="fil12" points="3342.83,4505.45 3250.73,4559.5 3128.77,4489.06 3221.21,4435.11 "/>
   <polygon class="fil12" points="2629.34,4488.41 2496.05,4566.35 2374.55,4495.6 2507.55,4418.34 "/>
   <polygon class="fil12" points="2304.71,4515.25 2171.95,4592.77 2049.47,4522.1 2182.32,4444.81 "/>
   <polygon class="fil12" points="3094.23,4542.71 2960.95,4619.99 2839.11,4548.9 2971.58,4471.89 "/>
   <polygon class="fil12" points="1980.37,4542.71 1847.89,4619.99 1725.44,4548.9 1857.72,4471.89 "/>
   <polygon class="fil12" points="2444.52,4596.49 2311.81,4673.77 2189.4,4603.43 2322.22,4525.53 "/>
   <polygon class="fil12" points="3233.23,4623.13 3100.64,4700.36 2978.79,4629.7 3111.67,4552.63 "/>
   <polygon class="fil12" points="2908.78,4650.17 2775.04,4727.42 2653.65,4657.07 2786.96,4579.12 "/>
   <polygon class="fil12" points="2584.21,4677.2 2451.38,4754.05 2329.08,4683.45 2461.68,4606.41 "/>
   <polygon class="fil12" points="3373.16,4704.2 3240.68,4781.08 3118.03,4710.22 3250.96,4633.19 "/>
   <polygon class="fil12" points="3048.01,4730.56 2915.19,4807.61 2793.69,4737.98 2927.14,4660.07 "/>
   <polygon class="fil12" points="2724,4757.32 2590.95,4834.95 2468.3,4764.28 2601.18,4687.13 "/>
   <polygon class="fil12" points="3513,4784.8 3379.56,4861.94 3257.94,4790.82 3390.99,4713.9 "/>
   <polygon class="fil12" points="3188.49,4811.41 3055.67,4888.7 2933.6,4817.89 3066.68,4741 "/>
   <polygon class="fil12" points="2863.41,4837.86 2730.87,4915.77 2608.91,4844.68 2741.28,4767.67 "/>
   <polygon class="fil12" points="3652.31,4865.22 3519.36,4941.94 3397.74,4871.53 3531.03,4794.64 "/>
   <polygon class="fil12" points="4041.68,4908.24 3949.52,4962.31 3826.93,4891.62 3918.98,4837.86 "/>
   <polygon class="fil12" points="3327.96,4891.62 3194.96,4969.56 3072.72,4898.75 3206,4821.26 "/>
   <polygon class="fil12" points="3003.96,4918.9 2870.69,4996.13 2748.38,4925.32 2881.32,4848.52 "/>
   <polygon class="fil12" points="3792.4,4945.49 3659.62,5023.2 3536.97,4952.47 3670.37,4874.93 "/>
   <polygon class="fil12" points="3467.31,4972.55 3334.14,5049.37 3212.69,4979.48 3345.75,4902.2 "/>
   <polygon class="fil12" points="4227.64,5015.9 4135.2,5069.74 4013.6,4999.82 4105.82,4945.49 "/>
   <polygon class="fil12" points="3143.02,4999.83 3010.26,5076.57 2888.18,5006.39 3020.54,4929.14 "/>
   <polygon class="fil12" points="3931.45,5026.3 3798.97,5103.85 3676.89,5033.15 3809.95,4955.89 "/>
   <polygon class="fil12" points="3607.46,5053.37 3474.17,5130.63 3352.21,5059.93 3485.55,4982.79 "/>
   <polygon class="fil12" points="3282.59,5079.98 3149.89,5157.52 3027.98,5086.92 3160.46,5009.57 "/>
   <polygon class="fil12" points="4071.54,5107.04 3938.32,5184.09 3816.64,5113.6 3949.98,5036.86 "/>
   <polygon class="fil12" points="3747.26,5133.74 3613.97,5211.34 3491.79,5140.64 3624.89,5063.16 "/>
   <polygon class="fil12" points="3422.46,5160.69 3289.76,5237.75 3167.33,5167.34 3300.28,5090.39 "/>
   <polygon class="fil12" points="4553.18,5204.87 4461.25,5258.29 4338.74,5187.54 4431.7,5133.75 "/>
   <polygon class="fil12" points="4211.29,5188.12 4078.33,5265.23 3955.94,5194.53 4089.33,5117.07 "/>
   <polygon class="fil12" points="3886.83,5214.28 3753.55,5291.48 3631.64,5221.01 3765.09,5143.87 "/>
   <polygon class="fil12" points="4351.24,5268.43 4217.94,5345.46 4096.26,5274.67 4228.57,5197.51 "/>
   <polygon class="fil12" points="4739.72,5311.98 4647.96,5366.13 4525.78,5295.27 4617.3,5241.65 "/>
   <polygon class="fil12" points="4026.64,5295.27 3893.13,5372.26 3770.94,5301.74 3904.57,5225 "/>
   <polygon class="fil12" points="3701.5,5322.02 3569.25,5399.34 3446.48,5328.9 3579.48,5251.58 "/>
   <polygon class="fil12" points="4490.43,5348.38 4357.21,5425.89 4236.06,5355.6 4368.42,5278.66 "/>
   <polygon class="fil12" points="3377.05,5348.38 3244.51,5425.89 1864.82,4629.68 1997.82,4552.62 "/>
   <polygon class="fil12" points="4165.82,5375.86 4032.37,5453.09 3910.58,5382.65 4043.8,5305 "/>
   <polygon class="fil12" points="3841.53,5402.61 3708.57,5480.5 3586.29,5409.04 3718.94,5332.32 "/>
   <polygon class="fil12" points="4630.22,5429.85 4497.83,5506.61 4375.12,5436.55 4507.71,5359.32 "/>
   <polygon class="fil12" points="3516.39,5429.85 3383.85,5506.61 3261.67,5436.55 3394.43,5359.32 "/>
   <polygon class="fil12" points="4305.2,5456.29 4172.16,5533.38 4050.43,5463.19 4183.71,5385.88 "/>
   <polygon class="fil12" points="3980.81,5483.58 3847.99,5560.44 3726.2,5490.23 3858.74,5412.54 "/>
   <polygon class="fil12" points="3656.76,5510.28 3524.06,5587.59 3401.07,5516.47 3534.23,5439.55 "/>
   <polygon class="fil12" points="4445.58,5537.22 4312.18,5614.48 4189.82,5543.87 4323.73,5466.52 "/>
   <polygon class="fil12" points="4120.68,5564 3988.09,5641.46 3865.9,5571.05 3998.61,5493.83 "/>
   <polygon class="fil12" points="3796.23,5591.01 3663.46,5668.03 3541.27,5597.57 3673.69,5520.17 "/>
   <polygon class="fil12" points="4260.41,5644.66 4127.79,5721.88 4005.31,5651.31 4138.42,5573.94 "/>
   <polygon class="fil12" points="3935.39,5671.24 3803.32,5748.84 3681.24,5678.09 3813.38,5600.72 "/>
   <polygon class="fil12" points="4075.95,5751.98 3943.01,5829.61 3820.7,5758.39 3953.24,5681.49 "/>
   <polygon class="fil12" points="2769.48,4569.73 2636.48,4646.73 2514.3,4576.01 2646.78,4498.66 "/>
   <polygon class="fil12" points="3562.26,5241.65 3429.21,5318.62 3306.56,5248.06 3439.95,5171.15 "/>
   <polygon class="fil12" points="1701.35,4380.93 1568.21,4458.66 1445.88,4387.8 1578.87,4310.74 "/>
   <polygon class="fil12" points="1561.42,4300.69 1428.72,4377.8 1306.24,4307.54 1439.01,4230.2 "/>
   <path class="fil12" d="M2570.48 5194.91c42.21,24.59 42.9,64.73 0.23,89.26l-278.2 161.02c-42.38,24.94 -111.59,24.94 -154.54,0.8l-377.84 -218.48c-41.81,-24.73 -42.26,-64.7 0,-89.52l277.8 -161.62c41.81,-23.9 111.42,-23.9 154.31,0l378.23 218.53z"/>
   <path class="fil11" d="M2570.48 5208.29c42.21,24.69 42.9,65.02 0.23,88.91l-278.2 161.23c-42.38,25.12 -111.59,25.12 -154.54,0.85l-377.84 -218.45c-41.81,-24.39 -42.26,-64.73 0,-89.72l277.8 -161.28c41.81,-24.52 111.42,-24.52 154.31,0l378.23 218.45z"/>
   <g>
    <image x="5010.54" y="6121.5" width="1544.34" height="906.8" xlink:href="no-chat_Images\no-chat_ImgID3.png"/>
   </g>
   <path class="fil13" d="M4883.75 5395.79l205.52 1236.41c0.75,11.54 2.7,23.32 5.68,34.87l0 0 1.26 7.42 0.69 0c17.62,55.05 62.9,107.52 136.38,150.1l0 0c194.25,113.02 510.34,113.02 705.86,0l0 0c73.76,-42.58 119.78,-95.05 138.07,-150.1l0 0 0.71 0 1.35 -8.34c3.53,-12.58 5.61,-25.42 6.44,-38.08l0 0 205.24 -1232.28 -1407.2 0z"/>
   <path class="fil14" d="M5091.35 5107.69c-275.56,159.1 -277.17,417.35 -3.5,576.36 274.22,159.3 719.85,159.24 995.44,0 275.73,-159.02 277.11,-416.89 3.04,-576.36 -273.96,-159.22 -719.16,-159.22 -994.98,0z"/>
   <path class="fil5" d="M5091.35 5107.69c-275.56,159.1 -277.17,417.35 -3.5,576.36 274.22,159.3 719.85,159.24 995.44,0 275.73,-159.02 277.11,-416.89 3.04,-576.36 -273.96,-159.22 -719.16,-159.22 -994.98,0z"/>
   <path class="fil15" d="M5164.5 5150.05c-235.15,135.78 -236.53,355.89 -2.98,491.6 233.64,135.95 613.79,135.87 848.95,0.12 235.12,-135.83 236.47,-355.85 2.58,-491.72 -233.6,-135.6 -613.56,-135.6 -848.54,0z"/>
   <path class="fil16" d="M6010.49 5641.77c-235.15,135.72 -615.34,135.83 -848.95,-0.11 -70.84,-41.12 -119.61,-89.87 -147.38,-141.73 20.32,-69.18 76.11,-135.83 168.47,-189.08 235.09,-135.97 614.99,-135.97 848.57,0 70.73,41.13 119.7,89.95 147.52,142 -20.43,69.06 -75.91,135.57 -168.24,188.93z"/>
   <path class="fil17" d="M5935.59 6484.84c-1.2,-0.57 -2.03,-1.15 -3.29,-1.72 -9.98,-4.21 -19.84,-9.02 -30.09,-14.87l66.8 -38.89c10.17,5.94 20.2,10.75 30.03,14.99 2.81,1.38 5.79,2.41 8.42,3.44 5.76,2.37 11.29,4.13 16.94,5.82 3.18,0.92 6.39,1.86 9.8,2.87 3.24,0.68 6.65,1.49 9.86,1.94 3.9,0.78 7.94,1.61 11.52,1.84 2.49,0.35 5.02,0.69 7.34,0.8 4.33,0.45 8.6,0.45 12.98,0.45l5.1 0c5.73,-0.34 11.35,-1.06 16.6,-1.94 1.15,-0.37 2.03,-0.69 3.18,-0.8 4.38,-0.8 8.71,-2.18 12.78,-3.44 1.46,-0.68 2.72,-0.91 3.96,-1.37 4.93,-2.03 9.94,-4.56 14.64,-6.96l-66.93 38.89c-0.2,0.23 -0.78,0.46 -1.21,0.46 -3.23,2.06 -7.02,4 -10.68,5.61 -0.86,0.11 -1.7,0.23 -2.62,0.66 -1.2,0.6 -2.75,1.06 -4.3,1.63 -1.54,0.46 -2.92,1.12 -4.64,1.61 -2.53,0.54 -4.87,1.15 -7.45,1.69 -1.38,0.34 -2.47,0.69 -3.76,0.94 -0.45,0.09 -0.91,0.2 -1.2,0.2 -4.52,0.94 -8.97,1.37 -13.66,1.61l-1.44 0 -5.42 0c-2.75,0 -5.39,0.11 -8.07,0 -1.55,0 -2.81,-0.24 -4.53,-0.24 -2.72,-0.43 -5.13,-0.43 -7.88,-0.8 -1.54,-0.24 -3.15,-0.46 -4.7,-0.58 -2.2,-0.2 -4.3,-0.92 -6.16,-1.26 -3.21,-0.66 -6.77,-1.23 -10.28,-2.06 -1.38,-0.54 -2.81,-0.66 -4.01,-1.12 -2.06,-0.37 -3.79,-1.37 -5.51,-1.95 -5.78,-1.49 -11.14,-3.32 -16.94,-5.61 -1.6,-0.69 -3.4,-1.03 -5.16,-1.84z"/>
   <path class="fil17" d="M6205.59 6404.53c0,-10.03 -0.41,-20.32 -1.26,-30.78 -0.24,-3.04 -0.46,-6.13 -0.89,-9.2 -0.6,-6.54 -1.43,-13.24 -2.52,-19.89 -0.8,-6.59 -2.01,-13.3 -3.44,-20.06 -1.26,-6.08 -2.29,-12.1 -3.78,-18.06 -0.92,-4.56 -2.04,-8.88 -3.35,-13.24 -1.69,-7.56 -3.84,-14.9 -6.25,-22.38 -0.92,-3.38 -1.89,-6.7 -2.98,-10 -3.38,-10.52 -7.11,-21.14 -11.14,-31.52 -0.6,-1.78 -1.32,-3.39 -2.01,-5.04 -3.61,-8.91 -7.42,-18.23 -11.75,-27.31 -1.2,-2.79 -2.35,-5.51 -3.53,-8.37 -4.7,-9.52 -9.51,-19.46 -14.5,-29.06 -0.37,-0.83 -0.89,-1.54 -1.4,-2.4 -5.45,-10.28 -11.15,-20.43 -17.29,-30.49 -1.66,-3.01 -3.49,-5.96 -5.22,-9 -4.58,-7.22 -9.25,-14.25 -13.96,-21.4 -2.03,-3.41 -4.44,-6.82 -6.68,-10.24 -5.22,-7.25 -10.45,-14.52 -15.73,-21.72 -1.89,-2.66 -4.13,-5.36 -6.08,-8.11 -4.99,-6.43 -10.03,-12.24 -15.08,-18.54 -3.24,-4.09 -6.42,-8.31 -9.86,-12.15 -2.23,-2.52 -4.44,-4.9 -6.73,-7.36 -8.13,-8.89 -16.45,-17.74 -24.5,-26.22 -5.22,-5.08 -10.28,-9.98 -15.44,-14.73 -3.24,-3.15 -6.73,-6.45 -9.94,-9.43 -5.96,-5.25 -12.15,-10.52 -18.32,-15.42 -2.98,-2.64 -6.42,-5.47 -9.59,-8.11 -6.77,-5.3 -13.87,-10.35 -20.72,-15.53 -2.75,-1.89 -5.59,-3.82 -8.11,-5.79 -9.86,-6.51 -19.63,-13.07 -29.69,-18.74l66.85 -38.83c9.94,5.76 19.66,12.03 29.75,18.8 2.52,1.84 5.47,3.9 7.99,5.91 6.99,4.84 13.96,9.91 20.92,15.3 3.13,2.79 6.43,5.45 9.66,8.17 6.05,4.96 12.1,10.03 18.06,15.3 3.66,3.41 6.94,6.3 10.15,9.68 3.61,3.21 7.13,6.3 10.45,9.72 1.72,1.67 3.09,3.09 4.44,4.76 8.59,8.59 17.16,17.48 25.08,26.79 1.72,1.89 3.44,3.53 5.33,5.27 0.28,0.63 0.54,1.01 1.01,1.67 4.09,4.52 7.96,9.31 11.66,14.27 3.99,4.73 7.88,9.23 11.72,14.13 0.49,0.69 0.95,1.06 1.38,1.89 2.61,3.06 4.75,6.3 6.99,9.31 4.01,5.33 8.08,10.63 11.92,16.11 1.09,1.78 2.4,3.3 3.49,5.07 2.1,3.13 4.05,6.19 6.22,9.17 2.52,3.92 5.39,7.65 7.71,11.81 2.23,3.46 4.35,7.25 6.82,10.71 1.72,3.01 3.24,5.73 5.04,8.59 1.06,1.89 2.38,3.64 3.3,5.51 4.93,8.16 9.49,16.45 13.87,24.61 0.12,0.32 0.2,0.43 0.2,0.71 0.11,0.23 0.23,0.28 0.23,0.71 4.13,7.6 8.17,15.28 11.89,22.87 1.03,2.49 2.18,4.84 3.24,7.53 1.35,2.7 2.72,5.73 4.22,8.49 1.15,2.89 2.52,5.59 3.66,8.56 2.75,6.13 5.04,12.44 7.68,18.43 0.66,1.84 1.45,3.72 1.92,5.35 0.32,0.32 0.63,0.8 0.63,1.23 3.32,8.59 6.53,17.37 9.34,26.08 0.43,1.46 0.85,2.75 1.34,4.13 1.01,3.27 2.1,6.39 2.87,9.63 1.49,4.67 2.87,9.4 4.53,13.96 0.51,2.87 1.32,5.84 1.77,8.76 1.49,4.33 2.3,8.89 3.56,13.35 0.6,2.87 1.43,5.76 1.92,8.77 0.71,2.98 1.03,6.08 1.55,9.11 1.46,6.59 2.61,13.49 3.72,20.34 0.26,2.72 0.92,5.36 1.2,8.37 0.52,3.64 0.75,7.34 1.15,11.06 0.35,3.24 0.75,6.34 1.03,9.75 0.75,10.23 1.32,20.49 1.32,30.49 -0.41,85.54 -31.12,145.52 -81.42,174.66l-66.85 38.8c50.27,-29.32 80.99,-89.24 81.21,-174.61z"/>
   <path class="fil18" d="M5903.86 5904.24l-0.29 86.94c122.37,70.73 221.66,234.84 221.2,366.83 -0.51,131.76 -100.04,180.94 -222.57,110.25l-0.34 87.08c167.38,96.52 303.36,29.03 303.73,-150.81 0.66,-179.67 -134.75,-403.72 -301.72,-500.28z"/>
   <polygon class="fil19" points="2970.11,419.31 3023,388.68 3022.89,433.21 2969.99,464.02 "/>
   <polygon class="fil19" points="2970.44,303.85 3023.31,273.05 3023.2,317.66 2970.33,348.36 "/>
   <polygon class="fil19" points="2970.85,182.47 3023.63,151.84 3023.52,196.33 2970.73,227.11 "/>
   <polygon class="fil20" points="2969.99,464.02 3022.89,433.22 4353.25,1201.49 4300.44,1232.07 "/>
   <polygon class="fil21" points="2970.11,419.31 3023,388.68 4353.42,1156.76 4300.58,1187.53 "/>
   <polygon class="fil22" points="4300.59,1187.53 4353.43,1156.75 4353.26,1201.48 4300.44,1232.06 "/>
   <polygon class="fil20" points="2970.33,348.37 3023.2,317.67 4353.71,1085.83 4300.86,1116.58 "/>
   <polygon class="fil21" points="2970.44,303.85 3023.31,273.05 4353.84,1041.24 4300.86,1071.89 "/>
   <polygon class="fil22" points="4300.87,1071.89 4353.85,1041.23 4353.71,1085.82 4300.87,1116.57 "/>
   <polygon class="fil20" points="2970.73,227.12 3023.52,196.34 4354,964.53 4301.09,995.22 "/>
   <polygon class="fil22" points="4301.31,950.73 4354.07,919.95 4354.02,964.52 4301.09,995.2 "/>
   <polygon class="fil23" points="4301.31,950.73 4301.09,995.2 2970.72,227.13 2970.84,182.46 "/>
   <polygon class="fil21" points="2970.85,182.47 3023.63,151.84 4354.08,919.97 4301.32,950.75 "/>
   <path class="fil24" d="M4300.87 1116.57l0 -44.68 -1330.42 -768.04 -0.11 44.5 1330.53 768.22zm-0.43 115.49l0.15 -44.53 -1330.48 -768.22 -0.11 44.73 1330.44 768.02zm0.66 -236.84l0.24 -44.47 -1330.48 -768.28 -0.11 44.64 1330.36 768.11zm-13.58 -160.11c49.03,28.25 88.75,96.66 88.52,153.11l-0.8 294.01c0,3.61 -0.78,6.68 -1.09,10.09l-2.36 360.01 -290.19 -437.58 -1101.55 -636.03c-48.97,-28.2 -88.55,-96.58 -88.44,-153l0.92 -294.07c0.23,-56.37 39.92,-78.92 88.95,-50.66l1306.03 754.12z"/>
   <polygon class="fil23" points="4300.59,1187.53 4300.44,1232.06 2969.99,464.01 2970.11,419.3 "/>
   <polygon class="fil23" points="4300.87,1071.89 4300.87,1116.57 2970.33,348.35 2970.45,303.84 "/>
   <path class="fil11" d="M4428.87 953.44c0,-1.46 -0.11,-2.92 -0.28,-4.32 0,-1.35 -0.11,-2.84 -0.29,-4.33 -0.08,-1.43 -0.31,-2.95 -0.45,-4.27 -0.23,-1.58 -0.45,-3.01 -0.69,-4.5 -0.19,-1.45 -0.54,-2.95 -0.8,-4.52 -0.41,-1.49 -0.49,-3.04 -0.89,-4.58 -0.26,-1.52 -0.71,-3.07 -1.09,-4.59 -0.45,-1.6 -0.83,-3.21 -1.32,-4.7 -0.23,-1.29 -0.66,-2.58 -0.92,-3.73 0,-0.11 -0.11,-0.23 -0.17,-0.4 -0.06,-0.11 -0.06,-0.41 -0.17,-0.6 -0.49,-1.52 -1.03,-3.09 -1.55,-4.59 -0.45,-1.43 -0.97,-2.98 -1.52,-4.41 -0.49,-1.52 -1,-2.98 -1.63,-4.33 -0.45,-1.49 -1.09,-2.92 -1.78,-4.41 -0.37,-1.03 -0.97,-2.21 -1.46,-3.3 0,-0.06 -0.06,-0.28 -0.06,-0.37 -0.11,-0.17 -0.17,-0.31 -0.23,-0.51 -0.71,-1.46 -1.37,-2.81 -1.97,-4.3 -0.8,-1.46 -1.46,-3.04 -2.29,-4.7 -0.89,-1.67 -1.7,-3.41 -2.73,-5.24 -0.94,-1.98 -2.06,-3.93 -3.32,-5.85 -0.06,-0.23 -0.23,-0.49 -0.28,-0.75 -0.17,-0.34 -0.4,-0.66 -0.52,-0.89 -2.18,-3.67 -4.44,-7.22 -6.85,-10.8 -1.75,-2.75 -3.66,-5.3 -5.61,-7.94 0,-0.2 0,-0.24 -0.23,-0.32 -1.09,-1.67 -2.47,-3.32 -3.67,-4.93 -1.15,-1.37 -2.15,-2.87 -3.41,-4.24 -1.15,-1.26 -2.23,-2.7 -3.35,-4.01 -1.15,-1.23 -2.37,-2.49 -3.52,-3.79 -0.24,-0.25 -0.46,-0.54 -0.69,-0.74 -0.23,-0.18 -0.28,-0.26 -0.4,-0.46 -0.86,-0.89 -1.67,-1.86 -2.53,-2.66 -1.2,-1.23 -2.55,-2.49 -3.7,-3.73 -1.37,-1.2 -2.64,-2.35 -4.01,-3.57 -1.26,-1.21 -2.7,-2.38 -3.96,-3.47 -0.63,-0.54 -1.32,-1.09 -2.01,-1.63 -0.17,-0.2 -0.28,-0.29 -0.51,-0.43 -0.46,-0.41 -0.86,-0.8 -1.41,-1.15 -1.26,-1.03 -2.58,-1.98 -3.9,-2.98 -1.26,-0.97 -2.58,-1.89 -3.9,-2.75 -1.26,-0.89 -2.52,-1.69 -3.78,-2.46 -1.26,-0.8 -2.41,-1.58 -3.73,-2.36 -0.26,-0.19 -0.63,-0.4 -0.86,-0.51l-1306.17 -754.1c-0.84,-0.49 -1.81,-1.03 -2.72,-1.54 -1.27,-0.6 -2.53,-1.32 -3.79,-1.86 -1.09,-0.52 -2.29,-1.18 -3.44,-1.72 -1.32,-0.49 -2.53,-1.06 -3.58,-1.55 -1.21,-0.45 -2.36,-0.85 -3.61,-1.32 -0.23,-0.06 -0.4,-0.2 -0.58,-0.2 -0.11,-0.02 -0.28,-0.02 -0.45,-0.14 -0.8,-0.15 -1.67,-0.49 -2.52,-0.84 -1.15,-0.28 -2.53,-0.66 -3.73,-0.97 -1.2,-0.32 -2.44,-0.61 -3.55,-0.8 -1.29,-0.29 -2.61,-0.52 -3.93,-0.69 -0.74,-0.15 -1.71,-0.15 -2.52,-0.23l-0.35 0c-0.45,-0.09 -0.68,-0.11 -1.03,-0.11 -1.49,-0.11 -2.86,-0.23 -4.13,-0.11 -1.6,0 -3.12,0 -4.67,0.14 -1.71,0.17 -3.32,0.49 -5.04,0.75l-0.24 0 0 0.09c-2.06,0.37 -4.13,0.97 -5.93,1.66 -2.63,0.97 -4.93,1.93 -7.22,3.18 -17.63,10.4 -35.3,20.63 -52.95,30.8 3.98,-2.32 8.45,-3.98 13.15,-4.87 0.11,-0.02 0.11,-0.02 0.15,-0.02 4.64,-1.01 9.68,-1.23 15.01,-0.8 0.03,0.03 0.17,0.03 0.28,0.03 5.3,0.43 10.75,1.58 16.45,3.61l0.12 0.06c5.9,2.01 11.86,4.82 18.02,8.25l1306.03 754.1c6.08,3.47 11.98,7.53 17.6,12.09 0.11,0.24 0.42,0.41 0.54,0.63 5.61,4.56 11.11,9.51 16.27,15.02 0.09,0.08 0.09,0.11 0.2,0.25 5.33,5.68 10.32,11.61 15.08,17.97 4.56,6.28 8.88,13.07 12.87,19.8 0.11,0.15 0.23,0.37 0.34,0.54 3.87,6.7 7.48,13.84 10.63,20.92 0,0 0,0.09 0.11,0.17 3.01,7.16 5.73,14.42 7.88,21.87 0,0.06 0.11,0.09 0.11,0.15 4.59,14.82 6.88,29.57 6.88,43.7l-0.8 294.01c0,3.61 -0.75,6.68 -1.09,10.08l-2.35 360.01 52.95 -30.72 2.32 -360.04c0.08,-0.66 0.19,-1.26 0.32,-1.89 0.11,-1.03 0.11,-2.06 0.23,-3.06 0.23,-0.8 0.32,-1.52 0.32,-2.41 0.06,-0.4 0.06,-0.94 0.06,-1.43 0.06,-0.4 0.06,-0.8 0.06,-1.18l0 -0.11 0.94 -294.1c0,-1.29 0,-2.61 -0.11,-3.93z"/>
   <polygon class="fil19" points="4618.49,345.68 4666.61,317.65 4666.61,358.31 4618.32,386.28 "/>
   <polygon class="fil19" points="4618.8,240.27 4666.97,212.25 4666.86,252.91 4618.69,280.94 "/>
   <polygon class="fil19" points="4619.14,129.7 4667.31,101.73 4667.13,142.25 4619.02,170.4 "/>
   <polygon class="fil20" points="4618.32,386.28 4666.61,358.31 5879.66,1058.67 5831.55,1086.76 "/>
   <polygon class="fil21" points="4618.49,345.68 4666.61,317.65 5879.89,1018.1 5831.6,1046.01 "/>
   <polygon class="fil23" points="5831.6,1046.01 5831.54,1086.76 4618.32,386.28 4618.49,345.68 "/>
   <polygon class="fil22" points="5831.6,1046.01 5879.89,1018.1 5879.66,1058.67 5831.54,1086.76 "/>
   <polygon class="fil20" points="4618.69,280.94 4666.86,252.92 5880.03,953.34 5831.77,981.31 "/>
   <polygon class="fil21" points="4618.8,240.27 4666.97,212.25 5880.13,912.63 5831.88,940.63 "/>
   <polygon class="fil22" points="5831.88,940.63 5880.13,912.63 5880.02,953.32 5831.77,981.29 "/>
   <polygon class="fil20" points="4619.02,170.41 4667.13,142.27 5880.36,842.86 5832.14,870.8 "/>
   <polygon class="fil21" points="4619.14,129.7 4667.31,101.73 5880.36,802.13 5832.18,830.12 "/>
   <polygon class="fil22" points="5832.19,830.12 5880.36,802.12 5880.36,842.84 5832.14,870.78 "/>
   <path class="fil24" d="M5832.14 870.79l0.06 -40.66 -1213.06 -700.42 -0.11 40.7 1213.11 700.39zm-0.6 215.98l0.06 -40.78 -1213.11 -700.33 -0.14 40.61 1213.19 700.5zm0.23 -105.49l0.11 -40.66 -1213.08 -700.35 -0.11 40.69 1213.08 700.33zm-8.72 -254.61c44.48,25.73 80.7,88.09 80.65,139.42l-0.8 268.13c-0.23,51.35 -36.51,71.93 -81.1,46.2l-1004.26 -579.83 -266.1 92.5 -0.23 -329.49c-0.26,-3.53 -0.86,-6.79 -0.86,-10.2l0.86 -268.17c0,-51.32 36.42,-71.9 81.16,-46.07l1190.69 687.52z"/>
   <polygon class="fil23" points="5831.88,940.63 5831.77,981.29 4618.69,280.93 4618.8,240.27 "/>
   <polygon class="fil23" points="5832.19,830.12 5832.14,870.78 4619.02,170.42 4619.14,129.7 "/>
   <path class="fil11" d="M5951.74 834.42c-0.06,-1.2 -0.11,-2.53 -0.11,-3.84 -0.17,-1.32 -0.32,-2.61 -0.43,-3.96 -0.08,-1.32 -0.25,-2.61 -0.37,-3.9 -0.23,-1.43 -0.34,-2.75 -0.57,-4.04 -0.26,-1.43 -0.52,-2.78 -0.8,-4.18 -0.17,-1.41 -0.51,-2.75 -0.8,-4.27 -0.34,-1.37 -0.57,-2.75 -1.03,-4.13 -0.28,-1.49 -0.68,-2.87 -1.03,-4.32 -0.34,-1.15 -0.68,-2.27 -1.03,-3.35l0 -0.32c-0.11,-0.11 -0.11,-0.4 -0.28,-0.58 -0.32,-1.43 -0.86,-2.75 -1.29,-4.15 -0.49,-1.41 -0.94,-2.78 -1.37,-4.18 -0.6,-1.26 -0.94,-2.58 -1.58,-3.9 -0.63,-1.35 -1.06,-2.63 -1.61,-3.92 -0.43,-1.01 -0.77,-2.01 -1.32,-3.07 -0.09,-0.08 -0.09,-0.08 -0.09,-0.23 -0.11,-0.2 -0.11,-0.37 -0.23,-0.51 -0.6,-1.32 -1.15,-2.66 -1.71,-3.96 -0.69,-1.44 -1.32,-2.87 -2.06,-4.3 -0.86,-1.63 -1.67,-3.09 -2.64,-4.76 -0.86,-1.78 -1.72,-3.53 -2.81,-5.19 -0.14,-0.31 -0.31,-0.63 -0.37,-1 -0.37,-0.32 -0.49,-0.63 -0.71,-0.97 -1.92,-3.3 -3.87,-6.42 -6.08,-9.6 -1.58,-2.38 -3.29,-4.93 -5.01,-7.34 -1.12,-1.49 -2.38,-3.04 -3.53,-4.61 -1.11,-1.26 -2.09,-2.55 -3.24,-3.9 -1.03,-1.2 -1.97,-2.43 -3.12,-3.64 -0.97,-1.2 -1.92,-2.32 -3.07,-3.47 -0.19,-0.19 -0.42,-0.31 -0.54,-0.66 -0.23,-0.06 -0.34,-0.19 -0.57,-0.31 -0.63,-0.89 -1.35,-1.67 -2.23,-2.44 -1.2,-1.18 -2.23,-2.27 -3.39,-3.41 -1.06,-1.03 -2.29,-2.21 -3.52,-3.35 -1.27,-1.03 -2.53,-2.06 -3.61,-3.06 -0.63,-0.41 -1.2,-0.97 -1.75,-1.38 -0.2,-0.23 -0.37,-0.37 -0.6,-0.49 -0.46,-0.37 -0.8,-0.74 -1.26,-1.09 -1.15,-0.94 -2.36,-1.86 -3.56,-2.72 -1.09,-0.89 -2.27,-1.66 -3.47,-2.49 -1.2,-0.77 -2.29,-1.52 -3.44,-2.23 -1.2,-0.75 -2.29,-1.41 -3.38,-2.12 -0.24,-0.15 -0.58,-0.26 -0.86,-0.45l-1190.79 -687.41c-0.85,-0.54 -1.71,-1 -2.52,-1.54 -1.03,-0.6 -2.29,-1.06 -3.3,-1.69 -1.15,-0.49 -2.29,-1.01 -3.29,-1.52 -1.09,-0.49 -2.36,-0.89 -3.39,-1.41 -1,-0.43 -2.09,-0.75 -3.18,-1.29 -0.23,0 -0.35,0 -0.71,-0.06l-0.15 -0.11c-0.8,-0.26 -1.55,-0.6 -2.32,-0.8 -1.17,-0.34 -2.32,-0.63 -3.35,-1 -1.15,-0.18 -2.18,-0.43 -3.29,-0.63 -1.26,-0.28 -2.53,-0.43 -3.56,-0.66 -0.92,0 -1.6,-0.09 -2.46,-0.2l-0.28 0c-0.35,0 -0.58,-0.14 -0.92,-0.14 -1.26,-0.12 -2.58,-0.15 -3.79,-0.15 -1.43,0 -2.83,0.02 -4.09,0.28 -1.72,0.2 -3.33,0.32 -4.76,0.66l-0.17 0 -0.06 0c-1.78,0.41 -3.73,0.84 -5.44,1.49 -2.19,0.89 -4.48,1.86 -6.51,3.12 -14.42,8.31 -28.94,16.68 -43.5,25.19 -1.38,0.8 -3.3,1.95 -4.79,2.7 3.64,-2.12 7.8,-3.56 12.01,-4.41 0.06,-0.18 0.06,-0.18 0.11,-0.18 4.3,-0.83 8.94,-1 13.75,-0.6 0.11,0 0.11,0 0.2,0.11 4.84,0.41 9.83,1.41 15.04,3.18 0.06,0.02 0.19,0.09 0.26,0.09 5.3,1.8 10.8,4.3 16.33,7.53l1190.7 687.49c5.59,3.21 10.92,6.9 16.11,11.15 0.11,0.14 0.11,0.14 0.34,0.23 5.16,4.24 10.09,8.85 14.84,13.96 0.09,0.02 0.15,0.06 0.15,0.2 9.6,10.14 18.14,21.83 25.39,34.33 0.25,0.19 0.25,0.45 0.49,0.71 3.55,6.13 6.79,12.49 9.59,18.94 2.84,6.53 5.3,13.32 7.34,20.06 0,0.09 0,0.09 0.06,0.15 4.04,13.44 6.33,26.91 6.33,39.71l-0.8 268.14c0,6.3 -0.63,12.06 -1.83,17.42l0 0.45c-1.09,5.27 -2.61,10.06 -4.48,14.24 0,0.15 -0.11,0.2 -0.11,0.29 -1.69,3.49 -3.87,6.47 -6.08,9.28 -0.83,1.03 -1.46,1.97 -2.37,2.87 -2.55,2.8 -5.51,5.39 -8.74,7.28 15.99,-9.37 32.21,-18.69 48.08,-28.03 3.41,-1.92 6.3,-4.49 8.94,-7.22 0.71,-0.89 1.49,-1.86 2.23,-2.8 0.94,-1.2 2.1,-2.32 2.98,-3.7 1.15,-1.7 2.09,-3.5 2.89,-5.51 0.11,-0.02 0.11,-0.14 0.11,-0.28 0.11,0 0.11,0 0.17,-0.15 0.58,-1.37 1.21,-2.66 1.78,-4.15 0.46,-1.37 0.97,-2.78 1.38,-4.24 0.34,-1.26 0.68,-2.72 1.09,-4.16 0.17,-0.51 0.28,-1.09 0.34,-1.63 0.06,-0.28 0.11,-0.37 0.11,-0.63 0.06,-0.58 0.23,-1.06 0.34,-1.64 0.18,-1.34 0.37,-2.63 0.52,-3.81 0.23,-1.32 0.34,-2.61 0.45,-3.98 0.11,-1.23 0.24,-2.47 0.24,-3.84 0,-1.29 0.06,-2.55 0.06,-3.84l0 -0.19 0.74 -268.14 0 -3.72z"/>
   <g>
    <image x="6417.6" y="5214.69" width="1595.82" height="923.92" xlink:href="no-chat_Images\no-chat_ImgID4.png"/>
   </g>
   <path class="fil25" d="M6576.31 4822.78l186.95 963.39 2.81 0c12.87,76.4 69.89,150.82 171.59,209.48l0 0c231.46,133.62 604.42,133.62 833.78,0.28l0 0c100.82,-58.54 157.33,-133.1 169.22,-209.76l0 0 0.69 0 188.98 -987.93 -1554.03 24.53z"/>
   <path class="fil26" d="M7900.74 4479.85c305.36,176.21 306.28,461.63 4.04,637.25 -302.63,175.61 -793.72,175.61 -1099.05,-0.68 -304.74,-175.86 -306.17,-460.37 -3.84,-635.91 302.49,-175.66 794.56,-176.03 1098.85,-0.66z"/>
   <path class="fil27" d="M6928.19 4565.67c-220.86,128.9 -219.54,336.49 2.86,465.18l0 0c223.21,128.81 582.55,128.81 803.13,0.51l0 0c221.11,-128.83 221.11,-336.8 -2.35,-465.69l0 0c-111.16,-64.04 -256.65,-96.02 -401.99,-96.02l0 0c-145.55,0 -290.98,32.06 -401.64,96.02l0 0z"/>
   <path class="fil28" d="M6533.44 2049.4c172.11,623.88 -310.23,386.92 -184.37,837.31l0 0c125.8,450.37 452.59,455.04 227.45,910.64l0 0c-225.13,455.61 373.45,588.47 506.55,778.81l0 0c46.22,66.14 21.58,327.28 121.19,299.17l0 0c99.61,-28.17 300.98,-661.07 222.29,-1189l0 0c-78.72,-527.97 -70.09,-572.41 -26.77,-1106.94l0 0c43.3,-534.55 -131.36,-1049.37 -475.86,-1275.9l0 0c-49.86,-32.78 -101.38,-48.8 -150.9,-48.8 -208.25,0.03 -380.67,283.36 -239.57,794.7l0 0z"/>
   <g>
    <image x="6675" y="1878.32" width="566.26" height="3011.29" xlink:href="no-chat_Images\no-chat_ImgID5.png"/>
   </g>
   <path class="fil29" d="M8261.22 2024.47c-328.11,114.76 -576.23,500.1 -650.22,946.17l0 0c-73.96,446.04 -75.93,484.15 -248.31,899.86l0 0c-172.4,415.66 -137.17,974.56 -61.47,1017.87l0 0c75.65,43.44 108.92,-175.24 160.24,-219.85l0 0c147.82,-128.44 664.66,-114.6 573.71,-533.26l0 0c-90.96,-418.73 177.26,-355.68 372.39,-698.3l0 0c195.01,-342.61 -247.93,-247.53 20.46,-722.57l0 0c240.45,-425.54 118.9,-704.91 -82.99,-704.94l0 0c-26.73,0 -54.9,4.9 -83.81,15.02l0 0z"/>
   <g>
    <image x="7292.73" y="2494.27" width="978.08" height="2412.45" xlink:href="no-chat_Images\no-chat_ImgID6.png"/>
   </g>
   <polygon class="fil30" points="3730.55,2414.84 3854.34,2342.94 2965.22,1170.18 2841.51,1242.1 "/>
   <polygon class="fil31" points="4623.25,2270.8 4747.05,2198.9 3854.33,2342.96 3730.55,2414.82 "/>
   <polygon class="fil32" points="4619.48,3587.59 4743.27,3515.67 4747.05,2198.9 4623.25,2270.81 "/>
   <polygon class="fil33" points="2841.5,1242.1 3730.53,2414.83 4623.25,2270.8 "/>
   <polygon class="fil34" points="4623.25,2270.8 4747.05,2198.9 2965.23,1170.19 2841.49,1242.1 "/>
   <polygon class="fil35" points="2841.5,1242.1 2837.75,2558.91 4619.48,3587.59 4623.25,2270.8 3730.53,2414.83 "/>
   <polygon class="fil30" points="4449.24,4240.33 4531.6,4192.54 3940.49,3412.83 3858.21,3460.63 "/>
   <polygon class="fil31" points="5042.88,4144.57 5125.15,4096.77 4531.59,4192.55 4449.23,4240.34 "/>
   <polygon class="fil32" points="5040.39,5020.07 5122.64,4972.27 5125.15,4096.77 5042.88,4144.56 "/>
   <polygon class="fil33" points="3858.22,3460.63 4449.26,4240.33 5042.87,4144.56 "/>
   <polygon class="fil34" points="5042.88,4144.57 5125.15,4096.77 3940.48,3412.83 3858.23,3460.63 "/>
   <polygon class="fil35" points="3858.22,3460.63 3855.73,4336.13 5040.38,5020.07 5042.87,4144.56 4449.26,4240.33 "/>
   <path class="fil36" d="M1995.99 1967.12c0,0 48.97,-133.79 240.99,-71.41 191.97,62.56 375.94,150.53 375.94,150.53l405.75 -226.93c0,0 79.23,40.4 78.97,101.19 0,0 -324.33,320.29 -500.16,338.25 0,0 -749.37,-9.23 -601.5,-291.63z"/>
   <path class="fil37" d="M3034.05 1828.57c0,0 42.9,-93.99 79.81,-121.47 36.99,-27.43 68.92,-36.34 81.5,-37.37 12.57,-0.97 -24.36,38.15 -36.76,50.44 -12.3,12.3 -19.29,54.51 78.43,8.72 97.74,-45.94 79.38,-25.28 77.84,-16.31 -1.46,9.11 -100.96,162.26 -218.16,196.47 0,0 -8.2,-41.09 -62.65,-80.47z"/>
   <path class="fil38" d="M2597.48 2258.76c175.83,-17.96 500.19,-338.25 500.19,-338.25 0,-16.86 -6.3,-32.07 -15.21,-45.45 -72.76,57.71 -285.96,224.89 -416.66,307.28 -159.56,100.35 -686.72,-157.01 -687.7,-162.08 -32.49,230.28 619.38,238.5 619.38,238.5z"/>
   <path class="fil39" d="M2315.58 4764.42c0,0 81.01,11.95 61.39,58.75 -19.63,46.59 -112.85,117.44 -124.88,147.01 -12.41,29.36 -88.21,134.53 -112.57,124.79 -24.69,-9.86 -88.35,4.87 -81.01,-115.09 7.46,-120.03 149.36,-220.45 257.08,-215.46z"/>
   <path class="fil39" d="M2469.92 5205.16c0,0 -39.2,115.34 58.8,142.13 97.8,26.85 68.52,-34.33 281.66,19.37 213.15,53.99 237.5,-56.14 232.6,-80.73 -4.87,-24.52 -147.04,-68.54 -193.46,-80.78 -46.56,-12.01 -134.68,-34.25 -134.68,-34.25l-252.61 0 7.68 34.25z"/>
   <path class="fil40" d="M2067.44 3183.94c0,0 -1.37,695.32 -1.37,773.55 0,78.35 -87.46,695.51 -34.85,964.85 0,0 151.59,152.02 285.57,0 0,0 42.95,-772.39 81.86,-946.8 38.54,-174.37 25.56,-707.38 25.56,-707.38l-356.77 -84.22z"/>
   <path class="fil40" d="M2333.44 3282.67c0,0 34.38,448.99 70.06,894.25 0,0 22.27,883.63 43.36,1010.9 0,0 284.88,70.64 313.3,-63.62 0,0 -6.99,-777.61 0,-939.98 7.31,-162.71 46.05,-672.04 -18.08,-933.62 -64.16,-261.51 -408.64,32.07 -408.64,32.07z"/>
   <path class="fil41" d="M2446.86 5187.83c-21.1,-127.26 -43.36,-1010.9 -43.36,-1010.9 -23.9,-299.69 -51.21,-650.87 -64.07,-815.81l193.38 37.48c0,0 113.37,388.83 94.19,888.22 -15,386.54 -21.38,767.04 -23.39,919.38 -78.55,0.92 -156.75,-18.37 -156.75,-18.37z"/>
   <path class="fil41" d="M2031.23 4922.34c-52.61,-269.34 34.82,-886.53 34.82,-964.86 0,-74.59 1.15,-708.53 1.26,-768.42l153.08 117.55c0,0 48.52,497.1 0,780.31 -44.33,257.61 -15.79,759.21 -37.4,902.9 -84.45,0 -151.76,-67.49 -151.76,-67.49z"/>
   <path class="fil36" d="M2024.88 1921.32c0,0 -147.01,73.48 -63.68,323.19 83.13,249.85 141.9,411.47 136.89,504.41 -4.67,93.22 -28.25,437.64 -47.89,501.31 0,0 -11.2,107 388.12,160.84 0,0 360.1,42.01 296.48,-212.63 -63.7,-254.76 -14.56,-532.6 -4.96,-630.55 10.01,-98.15 68.87,-293.99 -176.29,-426.23 -244.85,-132.25 -372.08,-230.2 -528.68,-220.35z"/>
   <path class="fil37" d="M2198.72 1797.92c0,0 15.56,130.5 -29.23,212.2 -40.72,74.02 266.79,141.71 274.1,73.08 0.8,-7.2 -58.34,-119.76 15.94,-253.01 38.89,-69.63 -260.8,-32.26 -260.8,-32.26z"/>
   <path class="fil42" d="M2171.03 2014.6c33.35,-60.78 33.35,-148.38 31.01,-189.39l224.46 111.44c0,0.29 -0.06,0.37 -0.06,0.52 -8.2,1.89 -159.88,40.49 -192.66,149.47 -46.11,-18.85 -77.45,-45.05 -62.75,-72.04z"/>
   <path class="fil37" d="M2522.49 1451.22c0,0 47.94,118.41 38.26,220.51 -10.28,109.73 6.25,132.08 -0.75,180.88 -2.89,20.92 -4.56,52.49 -24.87,71.92 -33.93,32.82 -103.71,44.88 -198.62,10.26 -114.45,-41.98 -235.1,-199.42 -186.12,-340.84 49.18,-141.62 199.85,-258.13 372.1,-142.74z"/>
   <path class="fil43" d="M2155.53 1746.97c46.16,-127.43 159.85,-280.17 158.81,-288.25 -0.54,-4.96 37.28,-28.77 80.3,-53.99 40.17,2.47 83.27,16.68 127.86,46.51 0,0 12.93,31.66 23.79,76.23 -27.29,30.66 -82.77,65.45 -91.13,91.21 -19.77,60.98 -8.68,153.57 9.51,194.15 18.17,40.92 -55.33,100.81 -39.83,136.78 0.68,1.86 0.68,3.49 0.28,5.13 -26.13,-1.92 -55.82,-8.03 -88.61,-19.92 -73.04,-26.88 -148.67,-101.01 -180.99,-187.84z"/>
   <path class="fil44" d="M2556.35 1402.73c0,0 16.64,101.38 -83.48,150.53 -60.29,29.41 -54.68,126.31 -51.92,144.17 2.87,18.08 20.61,99.75 13.15,110.36 -14.07,20.17 -61.04,-42.93 -83.38,-38.58 -57,11.18 -34.62,64.11 17.02,119.85 55.05,59.14 -89.78,83.44 -156.77,34.59 -35.62,-25.88 -48.58,-41.5 -95.23,-134.49 -68.09,-135.44 -71.53,-298.14 88.66,-384.89 160.15,-86.8 252.6,37.63 351.96,-1.54z"/>
   <path class="fil45" d="M2210.97 1923.65c-35.65,-25.88 -48.58,-41.5 -95.26,-134.49 -68.05,-135.44 -71.5,-298.14 88.7,-384.91 160.13,-86.77 252.58,37.65 351.96,-1.52 0,0 2.89,17.13 -0.8,40.66 -50.75,8.2 -189.5,35.53 -225.44,95.42 -44.04,73.39 -93.02,49.75 -89.23,141.05 3.44,88.12 -19.35,203.29 128.58,253.12 -55.14,39.51 -132.48,9.68 -158.5,-9.34z"/>
   <path class="fil46" d="M2426.33 2042.51l100.09 84.34c0,0 -311.75,89.17 -403.16,-63.53 -12.92,-21.72 2.75,-94.08 57.15,-107.58 0,0 10.6,124.28 245.93,86.77z"/>
   <path class="fil38" d="M2734.82 3198.46c-63.73,-254.76 -14.58,-532.6 -4.96,-630.55 10,-97.11 67.08,-289.97 -169.45,-422.16 -82.27,49.97 -201.48,157.73 -133.91,339.63 83.56,225.33 111.13,713.68 127.49,925 98.98,-11.18 219.88,-55.54 180.82,-211.91z"/>
   <path class="fil36" d="M2425.76 2288c0,0 -10.17,-128.18 170.97,-149.1 181.19,-20.89 365.66,-18.03 365.66,-18.03l247.62 -339.2c0,0 80.26,3.66 102.96,53.7 0,0 -145.71,384.94 -283.38,465.81 0,0 -618.92,274.44 -603.82,-13.18z"/>
   <path class="fil37" d="M3226.14 1783.53c0,0 -0.06,-93.42 19.97,-129.78 19.86,-36.46 42.95,-55.68 52.9,-61.24 9.92,-5.68 -5.96,40.49 -11.2,55.22 -5.62,14.58 4.47,51.83 67.66,-22.53 62.99,-74.42 55.68,-50.55 57.74,-42.56 2.21,8.03 -21.92,171.42 -105.14,243.61 0,0 -22.32,-30.81 -81.93,-42.73z"/>
   <path class="fil38" d="M3029.58 2301.18c137.64,-80.87 283.38,-465.81 283.38,-465.81 -6.25,-14.04 -17.28,-24.08 -29.62,-31.75 -37.85,74.82 -150.05,292.15 -226.53,409.18 -93.37,142.39 -622.93,129.5 -625.69,125.77 60.01,201.4 598.46,-37.39 598.46,-37.39z"/>
   <path class="fil47" d="M5023.21 1357.65c-4.5,-1.23 -8.94,-2.04 -13.21,-2.55 -0.78,-0.09 -1.52,-0.17 -2.27,-0.24 -4.35,-0.34 -8.68,-0.45 -12.84,0 -3.81,0.41 -7.47,1.21 -10.97,2.3 -0.49,0.14 -0.94,0.34 -1.41,0.49 -3.32,1.15 -6.5,2.52 -9.54,4.26l97.63 -56.76c0.19,-0.09 0.43,-0.2 0.63,-0.32 1.78,-1 3.61,-1.89 5.51,-2.7 1.09,-0.45 2.26,-0.83 3.38,-1.2 0.51,-0.17 0.97,-0.37 1.43,-0.51 0.37,-0.11 0.72,-0.26 1.03,-0.35 2.01,-0.6 4.01,-1.06 6.11,-1.4 1.26,-0.24 2.58,-0.43 3.9,-0.55 0.8,-0.11 1.69,-0.17 2.58,-0.23 2.38,-0.17 4.76,-0.17 7.2,-0.06 1,0.03 2.03,0.2 3.03,0.28 0.75,0.06 1.49,0.15 2.24,0.24 0.97,0.11 1.95,0.14 2.92,0.28 3.22,0.51 6.54,1.2 9.92,2.12 0.09,0.03 0.26,0.09 0.4,0.15 1.12,0.28 2.32,0.83 3.47,1.2 3.3,1.03 6.54,2.01 9.89,3.38 0.35,0.17 0.69,0.41 1.09,0.54 5.56,2.38 11.27,5.13 17.08,8.48 5.7,3.3 11.55,7.25 17.39,11.46 1.7,1.15 3.33,2.41 4.99,3.67 4.84,3.64 9.69,7.56 14.56,11.72 1.23,1.03 2.44,2.01 3.64,3.06 5.16,4.56 10.32,9.32 15.53,14.48 0.58,0.54 1.15,1.26 1.67,1.84 7.6,7.6 15.19,15.61 22.79,24.33l0.02 0.02c1.37,1.61 2.72,3.39 4.07,4.96 5.47,6.47 11.03,13.04 16.45,20.09 0.17,0.17 0.32,0.37 0.45,0.54 6.02,7.77 11.96,15.87 17.89,24.27 0.51,0.74 1.06,1.4 1.54,2.14l0.03 0.03c6.27,8.91 12.49,18.22 18.59,27.76 0.26,0.37 0.49,0.75 0.72,1.12 1.54,2.49 3.06,5.1 4.64,7.62 4.24,6.82 8.48,13.58 12.64,20.72 0.75,1.28 1.52,2.61 2.27,3.89 0.23,-0.14 0.48,-0.25 0.71,-0.4 5.76,-3.27 11.69,-6.16 17.65,-8.65 0.11,-0.06 0.26,-0.11 0.45,-0.17 1.44,-0.58 2.87,-0.97 4.33,-1.49 4.09,-1.58 8.25,-3.21 12.4,-4.41 0.69,-0.2 1.38,-0.28 2.04,-0.49 2.01,-0.54 4.04,-0.92 6.08,-1.41 2.92,-0.69 5.82,-1.52 8.76,-2.03 1.38,-0.26 2.79,-0.29 4.18,-0.49 2.19,-0.32 4.33,-0.54 6.51,-0.78 1.95,-0.19 3.96,-0.57 5.91,-0.71 2.35,-0.15 4.67,-0.02 7.02,-0.06 2.06,-0.02 4.13,-0.11 6.13,-0.06 1.12,0.03 2.21,-0.09 3.3,-0.03 3.92,0.18 7.82,0.67 11.72,1.15 1.32,0.17 2.63,0.19 3.96,0.4 0.34,0.02 0.68,0.02 1.03,0.09 5.82,0.89 11.69,2.12 17.48,3.7 0.23,0.02 0.42,0.17 0.66,0.23 3.21,0.89 6.42,2.14 9.59,3.3 3.33,1.11 6.68,2 9.98,3.35 0.17,0.09 0.32,0.24 0.52,0.29 6.82,2.83 13.55,6.16 20.15,9.97 6.38,3.67 12.61,7.94 18.74,12.55 1.84,1.35 3.7,2.9 5.5,4.36 4.41,3.58 8.74,7.34 12.98,11.37 1.12,1.06 2.32,1.89 3.41,2.96 1.03,0.97 1.95,2.14 2.95,3.15 1.67,1.69 3.27,3.44 4.87,5.22 1.37,1.49 2.78,2.83 4.1,4.35 2.4,2.78 4.81,5.67 7.16,8.63 0.49,0.63 0.97,1.26 1.45,1.89 2.49,3.18 4.87,6.42 7.16,9.71 1.7,2.36 3.27,4.79 4.87,7.22 0.26,0.41 0.58,0.84 0.83,1.23 0.24,0.37 0.49,0.71 0.72,1.03 1.97,3.13 3.89,6.25 5.76,9.46 1.8,3.18 3.64,6.39 5.35,9.63 0.03,0.08 0.06,0.17 0.12,0.25 0.08,0.15 0.11,0.29 0.19,0.37 1.61,3.07 3.21,6.19 4.7,9.32 1.71,3.58 3.35,7.16 4.96,10.8 0.15,0.37 0.28,0.74 0.46,1.11 0.25,0.6 0.45,1.23 0.71,1.84 1.23,2.92 2.46,5.82 3.58,8.77 1.66,4.24 3.18,8.54 4.61,12.87l0 0c0.02,0.02 0.02,0.08 0.06,0.11 1.69,5.13 3.27,10.32 4.7,15.5 0.46,1.61 0.8,3.24 1.18,4.87 0.69,2.52 1.26,5.04 1.89,7.56 0.51,2.27 1.17,4.5 1.63,6.79 0.43,2.01 0.66,4.07 1.06,6.08 0.95,4.82 1.72,9.72 2.47,14.59 0.32,2.12 0.8,4.18 1.09,6.3 0.17,1.61 0.19,3.24 0.4,4.84 0.69,5.82 1.09,11.61 1.46,17.42 0.2,3.32 0.49,6.59 0.54,9.94 0.26,6.9 0.2,13.82 0,20.72 -0.06,2.2 0,4.39 -0.06,6.59 -0.45,9.06 -1.26,18.06 -2.44,26.99 -0.32,2.38 -0.8,4.73 -1.15,7.11 -1.03,6.54 -2.14,13.09 -3.53,19.58 -0.71,3.21 -1.54,6.36 -2.38,9.54 -1.37,5.59 -2.86,11.1 -4.56,16.57 -1.03,3.29 -2.14,6.56 -3.29,9.8 -1.8,5.3 -3.87,10.52 -5.96,15.62 -1.35,3.12 -2.61,6.25 -4.01,9.28 -2.46,5.39 -5.24,10.66 -8.05,15.85 -1.38,2.49 -2.64,5.09 -4.07,7.56 -4.41,7.54 -9.17,14.84 -14.3,21.83 -35.96,48.4 -83.44,105.45 -131.96,133.68l-97.66 56.74c48.54,-28.2 96,-85.28 131.97,-133.68 5.16,-6.96 9.85,-14.3 14.3,-21.83 1.46,-2.47 2.72,-5.04 4.1,-7.6 2.83,-5.19 5.53,-10.43 8.02,-15.82 1.41,-3.04 2.73,-6.17 4.01,-9.28 2.12,-5.1 4.13,-10.32 5.99,-15.59 1.15,-3.24 2.26,-6.54 3.27,-9.86 1.71,-5.42 3.18,-10.92 4.58,-16.47 0.77,-3.18 1.67,-6.37 2.36,-9.63 1.4,-6.45 2.49,-12.92 3.46,-19.45 0.41,-2.4 0.92,-4.78 1.18,-7.16 1.18,-8.97 2.03,-17.97 2.44,-27.03 0.08,-2.18 0.02,-4.39 0.08,-6.59 0.2,-6.9 0.26,-13.78 0.03,-20.72 -0.09,-3.29 -0.34,-6.59 -0.54,-9.89 -0.37,-5.85 -0.83,-11.69 -1.49,-17.51 -0.43,-3.7 -0.92,-7.39 -1.46,-11.04 -0.72,-4.92 -1.55,-9.83 -2.49,-14.69 -0.84,-4.3 -1.69,-8.6 -2.66,-12.84 -0.63,-2.52 -1.21,-5.04 -1.89,-7.56 -1.75,-6.85 -3.7,-13.67 -5.87,-20.35 -0.03,-0.06 -0.03,-0.11 -0.06,-0.14 -2.44,-7.31 -5.22,-14.53 -8.2,-21.64 -0.26,-0.6 -0.49,-1.23 -0.72,-1.84 -3.15,-7.22 -6.47,-14.3 -10.11,-21.23 -0.09,-0.08 -0.15,-0.23 -0.2,-0.34 -3.72,-6.99 -7.68,-13.81 -11.95,-20.41 -0.32,-0.4 -0.54,-0.83 -0.83,-1.23 -4.24,-6.44 -8.74,-12.75 -13.52,-18.82 -3.61,-4.61 -7.42,-8.83 -11.23,-12.98 -1.61,-1.78 -3.27,-3.53 -4.87,-5.22 -2.12,-2.12 -4.24,-4.1 -6.36,-6.11 -4.24,-4.04 -8.59,-7.82 -13.04,-11.4 -1.8,-1.43 -3.61,-2.95 -5.42,-4.33 -6.16,-4.58 -12.4,-8.85 -18.76,-12.55 -6.62,-3.81 -13.39,-7.13 -20.18,-9.97 -3.47,-1.44 -6.96,-2.47 -10.46,-3.64 -3.18,-1.12 -6.38,-2.41 -9.59,-3.3 -6.37,-1.75 -12.75,-3.09 -19.18,-4.01 -1.37,-0.2 -2.75,-0.26 -4.15,-0.43 -4.84,-0.58 -9.75,-0.97 -14.65,-1.09 -2.2,-0.06 -4.41,0.03 -6.59,0.09 -4.16,0.06 -8.29,0.31 -12.41,0.74 -2.32,0.24 -4.64,0.46 -6.93,0.8 -4.22,0.63 -8.43,1.49 -12.56,2.46 -2.12,0.49 -4.24,0.86 -6.3,1.46 -4.87,1.32 -9.68,3.04 -14.44,4.87 -1.46,0.54 -2.92,0.92 -4.32,1.49 -6.39,2.66 -12.64,5.7 -18.8,9.22 -4.67,-8.07 -9.46,-15.76 -14.21,-23.47 -1.84,-2.92 -3.58,-6.02 -5.45,-8.88 -6.33,-9.95 -12.72,-19.58 -19.23,-28.8 -0.51,-0.75 -1.06,-1.41 -1.54,-2.14 -6.08,-8.57 -12.21,-16.91 -18.34,-24.82 -5.33,-6.82 -10.6,-13.13 -15.96,-19.43 -1.52,-1.84 -3.07,-3.84 -4.61,-5.65 -7.56,-8.72 -15.13,-16.73 -22.73,-24.3 -5.76,-5.82 -11.54,-11.32 -17.28,-16.39 -1.15,-1 -2.29,-1.89 -3.41,-2.86 -4.98,-4.27 -9.94,-8.23 -14.81,-11.96 -1.61,-1.2 -3.24,-2.37 -4.85,-3.55 -5.9,-4.22 -11.72,-8.16 -17.45,-11.49 -5.82,-3.32 -11.49,-6.08 -17.11,-8.48 -3.79,-1.58 -7.45,-2.83 -11.14,-4.01 -1.1,-0.32 -2.21,-0.83 -3.3,-1.11z"/>
   <path class="fil48" d="M5054.75 1371.26c-21.53,-12.41 -41.84,-18.32 -59.87,-16.39 -80.09,8.51 -84.8,167.87 -10.2,355.94 58.95,148.7 149.42,357.8 224.41,401.13 1.29,0.77 2.64,1.44 3.9,2.1 1.35,0.89 2.66,1.69 4.01,2.46 75.11,43.42 166.49,-60.81 226.1,-141.07 75.22,-101.51 71.61,-265.67 -8.2,-366.54 -17.94,-22.7 -38.2,-40.18 -59.69,-52.58 -51.5,-29.72 -110.01,-30.12 -160.59,-1.29 -50.15,-86.97 -108.43,-154.03 -159.87,-183.74z"/>
   <path class="fil49" d="M1393.64 651.09c-4.52,-1.23 -8.91,-2.04 -13.21,-2.55 -0.77,-0.09 -1.52,-0.17 -2.27,-0.23 -4.35,-0.37 -8.68,-0.46 -12.83,0 -3.84,0.4 -7.51,1.2 -10.98,2.29 -0.48,0.14 -0.94,0.34 -1.4,0.49 -3.33,1.15 -6.51,2.52 -9.54,4.24l97.63 -56.74c0.2,-0.11 0.43,-0.23 0.63,-0.34 1.77,-1.01 3.61,-1.89 5.5,-2.67 1.12,-0.49 2.27,-0.83 3.38,-1.2 0.49,-0.17 0.95,-0.37 1.44,-0.54 0.34,-0.08 0.68,-0.23 1.03,-0.32 1.97,-0.6 4.01,-1.06 6.1,-1.43 1.26,-0.2 2.58,-0.4 3.87,-0.51 0.86,-0.15 1.72,-0.18 2.58,-0.24 2.38,-0.17 4.78,-0.17 7.22,-0.06 1,0.03 2.03,0.2 3.04,0.29 0.74,0.06 1.46,0.14 2.23,0.23 0.97,0.11 1.95,0.14 2.89,0.28 3.24,0.49 6.56,1.18 9.94,2.12 0.09,0.03 0.26,0.09 0.41,0.15 1.15,0.25 2.32,0.8 3.47,1.2 3.27,1 6.53,1.97 9.89,3.35 0.34,0.17 0.71,0.4 1.09,0.54 5.56,2.37 11.26,5.16 17.05,8.5 5.73,3.27 11.58,7.22 17.42,11.44 1.66,1.18 3.32,2.44 4.98,3.67 4.85,3.64 9.69,7.56 14.56,11.75 1.23,1.03 2.43,1.97 3.64,3.06 5.16,4.53 10.32,9.32 15.53,14.48 0.57,0.51 1.15,1.26 1.66,1.8 7.6,7.6 15.19,15.62 22.79,24.36 0.02,0.02 0.02,0.02 0.06,0.06 1.35,1.58 2.7,3.35 4.04,4.9 5.47,6.51 11.01,13.07 16.45,20.09 0.17,0.2 0.32,0.37 0.46,0.54 5.99,7.8 11.95,15.9 17.85,24.3 0.54,0.74 1.06,1.41 1.58,2.12 0,0 0.02,0 0.02,0.02 6.28,8.94 12.49,18.23 18.6,27.8 0.23,0.35 0.49,0.75 0.71,1.12 1.54,2.46 3.06,5.1 4.64,7.62 4.22,6.82 8.49,13.58 12.64,20.72 0.75,1.26 1.52,2.58 2.27,3.87 0.23,-0.15 0.49,-0.26 0.71,-0.4 5.76,-3.24 11.66,-6.13 17.65,-8.63 0.11,-0.06 0.28,-0.11 0.46,-0.17 1.4,-0.58 2.83,-0.97 4.3,-1.52 4.13,-1.58 8.28,-3.21 12.44,-4.42 0.68,-0.17 1.37,-0.28 2.03,-0.49 2.01,-0.54 4.05,-0.92 6.08,-1.4 2.89,-0.67 5.82,-1.49 8.77,-2.01 1.37,-0.29 2.78,-0.32 4.18,-0.49 2.18,-0.35 4.3,-0.54 6.5,-0.78 1.95,-0.19 3.93,-0.57 5.91,-0.71 2.35,-0.17 4.67,-0.02 7.02,-0.06 2.06,-0.06 4.1,-0.11 6.13,-0.08 1.12,0.02 2.21,-0.06 3.3,-0.03 3.92,0.2 7.82,0.69 11.72,1.18 1.32,0.14 2.64,0.19 3.96,0.4 0.34,0.03 0.68,0.03 1.03,0.09 5.82,0.85 11.66,2.09 17.48,3.7 0.23,0.02 0.43,0.14 0.66,0.19 3.21,0.89 6.39,2.18 9.6,3.3 3.32,1.12 6.68,2.04 9.94,3.38 0.17,0.09 0.34,0.2 0.54,0.29 6.79,2.83 13.52,6.13 20.15,9.94 6.39,3.7 12.61,7.96 18.74,12.55 1.86,1.37 3.7,2.89 5.53,4.39 4.39,3.55 8.71,7.3 12.98,11.35 1.09,1.06 2.29,1.89 3.38,2.98 1.01,0.97 1.95,2.12 2.96,3.15 1.63,1.69 3.27,3.4 4.87,5.18 1.38,1.49 2.79,2.87 4.1,4.35 2.4,2.81 4.82,5.7 7.16,8.66 0.49,0.63 0.97,1.26 1.46,1.89 2.49,3.15 4.87,6.38 7.16,9.72 1.66,2.35 3.27,4.75 4.87,7.19 0.26,0.43 0.54,0.83 0.84,1.23 0.23,0.37 0.49,0.71 0.71,1.06 1.97,3.13 3.9,6.25 5.76,9.46 1.8,3.15 3.61,6.37 5.33,9.63 0.06,0.08 0.09,0.17 0.15,0.25 0.08,0.12 0.11,0.26 0.19,0.37 1.61,3.07 3.18,6.17 4.7,9.32 1.72,3.55 3.35,7.16 4.96,10.8 0.15,0.37 0.26,0.71 0.46,1.11 0.26,0.6 0.45,1.23 0.74,1.81 1.23,2.92 2.44,5.84 3.56,8.8 1.63,4.24 3.18,8.5 4.61,12.83l0 0.03c0,0 0.02,0.08 0.06,0.11 1.69,5.13 3.27,10.28 4.7,15.5 0.42,1.61 0.8,3.24 1.2,4.87 0.63,2.49 1.23,5.01 1.83,7.56 0.54,2.27 1.18,4.5 1.67,6.79 0.43,2.01 0.63,4.05 1.03,6.05 0.94,4.84 1.75,9.74 2.49,14.61 0.32,2.12 0.8,4.18 1.06,6.3 0.19,1.61 0.23,3.24 0.42,4.84 0.67,5.79 1.09,11.61 1.46,17.4 0.2,3.32 0.49,6.62 0.58,9.97 0.23,6.9 0.17,13.82 -0.03,20.69 -0.06,2.21 0.03,4.42 -0.08,6.62 -0.43,9.03 -1.26,18.06 -2.41,26.99 -0.31,2.38 -0.8,4.74 -1.17,7.11 -1.01,6.54 -2.12,13.1 -3.5,19.54 -0.68,3.24 -1.58,6.39 -2.37,9.54 -1.38,5.59 -2.9,11.12 -4.56,16.6 -1.03,3.27 -2.15,6.53 -3.3,9.8 -1.84,5.27 -3.87,10.49 -5.96,15.62 -1.32,3.12 -2.58,6.25 -3.98,9.25 -2.53,5.39 -5.27,10.69 -8.08,15.85 -1.37,2.53 -2.64,5.13 -4.07,7.56 -4.41,7.54 -9.17,14.85 -14.3,21.84 -35.97,48.4 -83.45,105.48 -131.93,133.68l-97.69 56.76c48.54,-28.23 96,-85.31 131.96,-133.68 5.16,-6.96 9.89,-14.33 14.3,-21.83 1.46,-2.46 2.73,-5.07 4.1,-7.62 2.83,-5.16 5.53,-10.41 8.03,-15.82 1.41,-3.01 2.72,-6.13 4.01,-9.25 2.12,-5.1 4.13,-10.35 5.95,-15.59 1.15,-3.27 2.27,-6.56 3.3,-9.86 1.69,-5.44 3.18,-10.95 4.58,-16.47 0.78,-3.22 1.67,-6.39 2.36,-9.66 1.41,-6.42 2.49,-12.92 3.49,-19.43 0.37,-2.4 0.89,-4.78 1.15,-7.2 1.18,-8.94 2.04,-17.96 2.44,-26.99 0.09,-2.2 0.03,-4.38 0.09,-6.62 0.23,-6.87 0.28,-13.78 0.02,-20.69 -0.08,-3.32 -0.34,-6.62 -0.57,-9.89 -0.35,-5.84 -0.8,-11.72 -1.49,-17.51 -0.37,-3.7 -0.89,-7.39 -1.43,-11.06 -0.71,-4.9 -1.55,-9.83 -2.49,-14.67 -0.83,-4.3 -1.69,-8.6 -2.7,-12.84 -0.6,-2.52 -1.2,-5.04 -1.86,-7.56 -1.78,-6.88 -3.7,-13.67 -5.87,-20.37 -0.03,-0.03 -0.03,-0.09 -0.03,-0.09 -2.46,-7.34 -5.24,-14.58 -8.22,-21.66 -0.26,-0.6 -0.49,-1.23 -0.75,-1.84 -3.12,-7.25 -6.47,-14.3 -10.09,-21.23 -0.08,-0.11 -0.14,-0.25 -0.19,-0.37 -3.73,-6.96 -7.71,-13.78 -11.95,-20.4 -0.32,-0.37 -0.54,-0.8 -0.86,-1.23 -4.22,-6.45 -8.72,-12.72 -13.47,-18.8 -3.64,-4.61 -7.46,-8.85 -11.29,-12.98 -1.61,-1.78 -3.24,-3.53 -4.84,-5.22 -2.1,-2.15 -4.25,-4.13 -6.37,-6.13 -4.26,-4.01 -8.59,-7.82 -13.04,-11.38 -1.8,-1.46 -3.61,-2.98 -5.44,-4.33 -6.13,-4.58 -12.38,-8.88 -18.74,-12.55 -6.62,-3.81 -13.39,-7.13 -20.18,-9.97 -3.47,-1.46 -6.99,-2.49 -10.45,-3.64 -3.22,-1.15 -6.39,-2.41 -9.63,-3.33 -6.33,-1.71 -12.75,-3.06 -19.17,-3.98 -1.35,-0.2 -2.72,-0.26 -4.09,-0.43 -4.91,-0.57 -9.77,-0.97 -14.68,-1.09 -2.2,-0.06 -4.41,0.03 -6.59,0.09 -4.15,0.06 -8.28,0.31 -12.44,0.74 -2.32,0.24 -4.61,0.46 -6.9,0.8 -4.22,0.63 -8.42,1.49 -12.58,2.47 -2.09,0.48 -4.18,0.85 -6.27,1.43 -4.87,1.35 -9.69,3.04 -14.44,4.87 -1.46,0.54 -2.92,0.94 -4.33,1.52 -6.39,2.66 -12.66,5.7 -18.83,9.2 -4.64,-8.05 -9.43,-15.76 -14.22,-23.44 -1.77,-2.95 -3.55,-6.04 -5.41,-8.88 -6.34,-9.94 -12.75,-19.58 -19.24,-28.83 -0.51,-0.71 -1.06,-1.38 -1.58,-2.12 -6.04,-8.6 -12.18,-16.91 -18.33,-24.82 -5.27,-6.82 -10.58,-13.16 -15.94,-19.43 -1.52,-1.84 -3.09,-3.87 -4.61,-5.68 -7.56,-8.68 -15.13,-16.73 -22.72,-24.27 -5.76,-5.82 -11.55,-11.35 -17.31,-16.39 -1.12,-1 -2.27,-1.88 -3.38,-2.89 -4.99,-4.27 -9.95,-8.22 -14.85,-11.92 -1.58,-1.21 -3.21,-2.41 -4.81,-3.56 -5.91,-4.24 -11.72,-8.2 -17.48,-11.49 -5.79,-3.32 -11.46,-6.1 -17.08,-8.5 -3.75,-1.55 -7.45,-2.81 -11.14,-3.99 -1.09,-0.31 -2.21,-0.83 -3.3,-1.11z"/>
   <path class="fil50" d="M1425.17 664.69c-21.49,-12.41 -41.81,-18.31 -59.83,-16.39 -80.13,8.51 -84.8,167.87 -10.23,355.94 58.97,148.69 149.41,357.8 224.41,401.12 1.28,0.78 2.63,1.44 3.92,2.1 1.32,0.89 2.63,1.69 3.98,2.46 75.14,43.42 166.5,-60.81 226.1,-141.04 75.23,-101.53 71.61,-265.71 -8.16,-366.58 -17.97,-22.7 -38.23,-40.18 -59.72,-52.58 -51.49,-29.71 -110.01,-30.12 -160.59,-1.29 -50.12,-86.97 -108.43,-154.03 -159.87,-183.74z"/>
  </g>
 </g>
</svg>
